<mxfile host="Electron" modified="2023-10-26T07:19:33.985Z" agent="Mozilla/5.0 (X11; Linux x86_64) AppleWebKit/537.36 (KHTML, like Gecko) draw.io/21.6.8 Chrome/114.0.5735.289 Electron/25.5.0 Safari/537.36" etag="zYiISmewtdhhXWVVkrmY" version="21.6.8" type="device" pages="5">
  <diagram id="C5RBs43oDa-KdzZeNtuy" name="Class_Diagram">
    <mxGraphModel dx="1434" dy="2012" grid="1" gridSize="10" guides="1" tooltips="1" connect="1" arrows="1" fold="1" page="1" pageScale="1" pageWidth="827" pageHeight="1169" math="0" shadow="0">
      <root>
        <mxCell id="WIyWlLk6GJQsqaUBKTNV-0" />
        <mxCell id="WIyWlLk6GJQsqaUBKTNV-1" parent="WIyWlLk6GJQsqaUBKTNV-0" />
        <mxCell id="9iNIqAyyCNV7hzXlOCOX-19" style="edgeStyle=orthogonalEdgeStyle;rounded=0;orthogonalLoop=1;jettySize=auto;html=1;entryX=0;entryY=0.5;entryDx=0;entryDy=0;" parent="WIyWlLk6GJQsqaUBKTNV-1" source="9iNIqAyyCNV7hzXlOCOX-0" target="9iNIqAyyCNV7hzXlOCOX-10" edge="1">
          <mxGeometry relative="1" as="geometry">
            <Array as="points">
              <mxPoint x="140" y="450" />
              <mxPoint x="140" y="825" />
            </Array>
          </mxGeometry>
        </mxCell>
        <mxCell id="9iNIqAyyCNV7hzXlOCOX-0" value="FoodMenu" style="swimlane;fontStyle=0;childLayout=stackLayout;horizontal=1;startSize=26;fillColor=none;horizontalStack=0;resizeParent=1;resizeParentMax=0;resizeLast=0;collapsible=1;marginBottom=0;whiteSpace=wrap;html=1;" parent="WIyWlLk6GJQsqaUBKTNV-1" vertex="1">
          <mxGeometry x="170" y="410" width="140" height="156" as="geometry" />
        </mxCell>
        <mxCell id="9iNIqAyyCNV7hzXlOCOX-1" value="- id: long" style="text;strokeColor=none;fillColor=none;align=left;verticalAlign=top;spacingLeft=4;spacingRight=4;overflow=hidden;rotatable=0;points=[[0,0.5],[1,0.5]];portConstraint=eastwest;whiteSpace=wrap;html=1;" parent="9iNIqAyyCNV7hzXlOCOX-0" vertex="1">
          <mxGeometry y="26" width="140" height="26" as="geometry" />
        </mxCell>
        <mxCell id="9iNIqAyyCNV7hzXlOCOX-2" value="- name: String" style="text;strokeColor=none;fillColor=none;align=left;verticalAlign=top;spacingLeft=4;spacingRight=4;overflow=hidden;rotatable=0;points=[[0,0.5],[1,0.5]];portConstraint=eastwest;whiteSpace=wrap;html=1;" parent="9iNIqAyyCNV7hzXlOCOX-0" vertex="1">
          <mxGeometry y="52" width="140" height="26" as="geometry" />
        </mxCell>
        <mxCell id="9iNIqAyyCNV7hzXlOCOX-3" value="- type: String" style="text;strokeColor=none;fillColor=none;align=left;verticalAlign=top;spacingLeft=4;spacingRight=4;overflow=hidden;rotatable=0;points=[[0,0.5],[1,0.5]];portConstraint=eastwest;whiteSpace=wrap;html=1;" parent="9iNIqAyyCNV7hzXlOCOX-0" vertex="1">
          <mxGeometry y="78" width="140" height="26" as="geometry" />
        </mxCell>
        <mxCell id="SEqII5cva00iTsP6fJlL-27" value="- createdOn: instant" style="text;strokeColor=none;fillColor=none;align=left;verticalAlign=top;spacingLeft=4;spacingRight=4;overflow=hidden;rotatable=0;points=[[0,0.5],[1,0.5]];portConstraint=eastwest;whiteSpace=wrap;html=1;" parent="9iNIqAyyCNV7hzXlOCOX-0" vertex="1">
          <mxGeometry y="104" width="140" height="26" as="geometry" />
        </mxCell>
        <mxCell id="SEqII5cva00iTsP6fJlL-28" value="- modifiedOn: instant" style="text;strokeColor=none;fillColor=none;align=left;verticalAlign=top;spacingLeft=4;spacingRight=4;overflow=hidden;rotatable=0;points=[[0,0.5],[1,0.5]];portConstraint=eastwest;whiteSpace=wrap;html=1;" parent="9iNIqAyyCNV7hzXlOCOX-0" vertex="1">
          <mxGeometry y="130" width="140" height="26" as="geometry" />
        </mxCell>
        <mxCell id="9iNIqAyyCNV7hzXlOCOX-18" style="edgeStyle=orthogonalEdgeStyle;rounded=0;orthogonalLoop=1;jettySize=auto;html=1;entryX=1;entryY=0.5;entryDx=0;entryDy=0;" parent="WIyWlLk6GJQsqaUBKTNV-1" source="9iNIqAyyCNV7hzXlOCOX-4" target="9iNIqAyyCNV7hzXlOCOX-11" edge="1">
          <mxGeometry relative="1" as="geometry">
            <Array as="points">
              <mxPoint x="450" y="450" />
              <mxPoint x="450" y="850" />
            </Array>
          </mxGeometry>
        </mxCell>
        <mxCell id="9iNIqAyyCNV7hzXlOCOX-4" value="FoodItem" style="swimlane;fontStyle=0;childLayout=stackLayout;horizontal=1;startSize=26;fillColor=none;horizontalStack=0;resizeParent=1;resizeParentMax=0;resizeLast=0;collapsible=1;marginBottom=0;whiteSpace=wrap;html=1;" parent="WIyWlLk6GJQsqaUBKTNV-1" vertex="1">
          <mxGeometry x="460" y="410" width="140" height="182" as="geometry" />
        </mxCell>
        <mxCell id="9iNIqAyyCNV7hzXlOCOX-5" value="- id: long" style="text;strokeColor=none;fillColor=none;align=left;verticalAlign=top;spacingLeft=4;spacingRight=4;overflow=hidden;rotatable=0;points=[[0,0.5],[1,0.5]];portConstraint=eastwest;whiteSpace=wrap;html=1;" parent="9iNIqAyyCNV7hzXlOCOX-4" vertex="1">
          <mxGeometry y="26" width="140" height="26" as="geometry" />
        </mxCell>
        <mxCell id="9iNIqAyyCNV7hzXlOCOX-7" value="- name: String" style="text;strokeColor=none;fillColor=none;align=left;verticalAlign=top;spacingLeft=4;spacingRight=4;overflow=hidden;rotatable=0;points=[[0,0.5],[1,0.5]];portConstraint=eastwest;whiteSpace=wrap;html=1;" parent="9iNIqAyyCNV7hzXlOCOX-4" vertex="1">
          <mxGeometry y="52" width="140" height="26" as="geometry" />
        </mxCell>
        <mxCell id="DK2uczl_l7ZURZDGx1rr-0" value="- cost: double" style="text;strokeColor=none;fillColor=none;align=left;verticalAlign=top;spacingLeft=4;spacingRight=4;overflow=hidden;rotatable=0;points=[[0,0.5],[1,0.5]];portConstraint=eastwest;whiteSpace=wrap;html=1;" parent="9iNIqAyyCNV7hzXlOCOX-4" vertex="1">
          <mxGeometry y="78" width="140" height="26" as="geometry" />
        </mxCell>
        <mxCell id="9iNIqAyyCNV7hzXlOCOX-6" value="- quantity: int" style="text;strokeColor=none;fillColor=none;align=left;verticalAlign=top;spacingLeft=4;spacingRight=4;overflow=hidden;rotatable=0;points=[[0,0.5],[1,0.5]];portConstraint=eastwest;whiteSpace=wrap;html=1;" parent="9iNIqAyyCNV7hzXlOCOX-4" vertex="1">
          <mxGeometry y="104" width="140" height="26" as="geometry" />
        </mxCell>
        <mxCell id="SEqII5cva00iTsP6fJlL-34" value="- createdOn: instant" style="text;strokeColor=none;fillColor=none;align=left;verticalAlign=top;spacingLeft=4;spacingRight=4;overflow=hidden;rotatable=0;points=[[0,0.5],[1,0.5]];portConstraint=eastwest;whiteSpace=wrap;html=1;" parent="9iNIqAyyCNV7hzXlOCOX-4" vertex="1">
          <mxGeometry y="130" width="140" height="26" as="geometry" />
        </mxCell>
        <mxCell id="SEqII5cva00iTsP6fJlL-33" value="- modifiedOn: instant" style="text;strokeColor=none;fillColor=none;align=left;verticalAlign=top;spacingLeft=4;spacingRight=4;overflow=hidden;rotatable=0;points=[[0,0.5],[1,0.5]];portConstraint=eastwest;whiteSpace=wrap;html=1;" parent="9iNIqAyyCNV7hzXlOCOX-4" vertex="1">
          <mxGeometry y="156" width="140" height="26" as="geometry" />
        </mxCell>
        <mxCell id="9iNIqAyyCNV7hzXlOCOX-8" value="FoodMenuFoodItemMap" style="swimlane;fontStyle=0;childLayout=stackLayout;horizontal=1;startSize=26;fillColor=none;horizontalStack=0;resizeParent=1;resizeParentMax=0;resizeLast=0;collapsible=1;marginBottom=0;whiteSpace=wrap;html=1;" parent="WIyWlLk6GJQsqaUBKTNV-1" vertex="1">
          <mxGeometry x="260" y="760" width="170" height="156" as="geometry" />
        </mxCell>
        <mxCell id="9iNIqAyyCNV7hzXlOCOX-9" value="- id: long" style="text;strokeColor=none;fillColor=none;align=left;verticalAlign=top;spacingLeft=4;spacingRight=4;overflow=hidden;rotatable=0;points=[[0,0.5],[1,0.5]];portConstraint=eastwest;whiteSpace=wrap;html=1;" parent="9iNIqAyyCNV7hzXlOCOX-8" vertex="1">
          <mxGeometry y="26" width="170" height="26" as="geometry" />
        </mxCell>
        <mxCell id="9iNIqAyyCNV7hzXlOCOX-10" value="- foodMenuId: long" style="text;strokeColor=none;fillColor=none;align=left;verticalAlign=top;spacingLeft=4;spacingRight=4;overflow=hidden;rotatable=0;points=[[0,0.5],[1,0.5]];portConstraint=eastwest;whiteSpace=wrap;html=1;" parent="9iNIqAyyCNV7hzXlOCOX-8" vertex="1">
          <mxGeometry y="52" width="170" height="26" as="geometry" />
        </mxCell>
        <mxCell id="9iNIqAyyCNV7hzXlOCOX-11" value="- foodItemId: long" style="text;strokeColor=none;fillColor=none;align=left;verticalAlign=top;spacingLeft=4;spacingRight=4;overflow=hidden;rotatable=0;points=[[0,0.5],[1,0.5]];portConstraint=eastwest;whiteSpace=wrap;html=1;" parent="9iNIqAyyCNV7hzXlOCOX-8" vertex="1">
          <mxGeometry y="78" width="170" height="26" as="geometry" />
        </mxCell>
        <mxCell id="SEqII5cva00iTsP6fJlL-32" value="- createdOn: instant" style="text;strokeColor=none;fillColor=none;align=left;verticalAlign=top;spacingLeft=4;spacingRight=4;overflow=hidden;rotatable=0;points=[[0,0.5],[1,0.5]];portConstraint=eastwest;whiteSpace=wrap;html=1;" parent="9iNIqAyyCNV7hzXlOCOX-8" vertex="1">
          <mxGeometry y="104" width="170" height="26" as="geometry" />
        </mxCell>
        <mxCell id="SEqII5cva00iTsP6fJlL-31" value="- modifiedOn: instant" style="text;strokeColor=none;fillColor=none;align=left;verticalAlign=top;spacingLeft=4;spacingRight=4;overflow=hidden;rotatable=0;points=[[0,0.5],[1,0.5]];portConstraint=eastwest;whiteSpace=wrap;html=1;" parent="9iNIqAyyCNV7hzXlOCOX-8" vertex="1">
          <mxGeometry y="130" width="170" height="26" as="geometry" />
        </mxCell>
        <mxCell id="kFdVYriPuRWGFx_V7fEj-1" value="Food" style="text;align=center;fontStyle=1;verticalAlign=middle;spacingLeft=3;spacingRight=3;strokeColor=none;rotatable=0;points=[[0,0.5],[1,0.5]];portConstraint=eastwest;html=1;" parent="WIyWlLk6GJQsqaUBKTNV-1" vertex="1">
          <mxGeometry x="10" y="330" width="80" height="26" as="geometry" />
        </mxCell>
        <mxCell id="kFdVYriPuRWGFx_V7fEj-2" value="Order" style="text;align=center;fontStyle=1;verticalAlign=middle;spacingLeft=3;spacingRight=3;strokeColor=none;rotatable=0;points=[[0,0.5],[1,0.5]];portConstraint=eastwest;html=1;" parent="WIyWlLk6GJQsqaUBKTNV-1" vertex="1">
          <mxGeometry x="10" y="920" width="80" height="26" as="geometry" />
        </mxCell>
        <mxCell id="U9kjjQZTbyZQ_9Jxf5X5-10" style="edgeStyle=orthogonalEdgeStyle;rounded=0;orthogonalLoop=1;jettySize=auto;html=1;entryX=0.5;entryY=0;entryDx=0;entryDy=0;" parent="WIyWlLk6GJQsqaUBKTNV-1" source="U9kjjQZTbyZQ_9Jxf5X5-0" target="U9kjjQZTbyZQ_9Jxf5X5-5" edge="1">
          <mxGeometry relative="1" as="geometry" />
        </mxCell>
        <mxCell id="U9kjjQZTbyZQ_9Jxf5X5-0" value="Order" style="swimlane;fontStyle=0;childLayout=stackLayout;horizontal=1;startSize=26;fillColor=none;horizontalStack=0;resizeParent=1;resizeParentMax=0;resizeLast=0;collapsible=1;marginBottom=0;whiteSpace=wrap;html=1;" parent="WIyWlLk6GJQsqaUBKTNV-1" vertex="1">
          <mxGeometry x="330" y="980" width="140" height="312" as="geometry" />
        </mxCell>
        <mxCell id="U9kjjQZTbyZQ_9Jxf5X5-1" value="- id: long" style="text;strokeColor=none;fillColor=none;align=left;verticalAlign=top;spacingLeft=4;spacingRight=4;overflow=hidden;rotatable=0;points=[[0,0.5],[1,0.5]];portConstraint=eastwest;whiteSpace=wrap;html=1;" parent="U9kjjQZTbyZQ_9Jxf5X5-0" vertex="1">
          <mxGeometry y="26" width="140" height="26" as="geometry" />
        </mxCell>
        <mxCell id="U9kjjQZTbyZQ_9Jxf5X5-2" value="- userId: long" style="text;strokeColor=none;fillColor=none;align=left;verticalAlign=top;spacingLeft=4;spacingRight=4;overflow=hidden;rotatable=0;points=[[0,0.5],[1,0.5]];portConstraint=eastwest;whiteSpace=wrap;html=1;" parent="U9kjjQZTbyZQ_9Jxf5X5-0" vertex="1">
          <mxGeometry y="52" width="140" height="26" as="geometry" />
        </mxCell>
        <mxCell id="kWJ2ibB3kTiv7gHBYrOh-0" value="- userAddressId: long" style="text;strokeColor=none;fillColor=none;align=left;verticalAlign=top;spacingLeft=4;spacingRight=4;overflow=hidden;rotatable=0;points=[[0,0.5],[1,0.5]];portConstraint=eastwest;whiteSpace=wrap;html=1;" parent="U9kjjQZTbyZQ_9Jxf5X5-0" vertex="1">
          <mxGeometry y="78" width="140" height="26" as="geometry" />
        </mxCell>
        <mxCell id="U9kjjQZTbyZQ_9Jxf5X5-3" value="- totalCost: double" style="text;strokeColor=none;fillColor=none;align=left;verticalAlign=top;spacingLeft=4;spacingRight=4;overflow=hidden;rotatable=0;points=[[0,0.5],[1,0.5]];portConstraint=eastwest;whiteSpace=wrap;html=1;" parent="U9kjjQZTbyZQ_9Jxf5X5-0" vertex="1">
          <mxGeometry y="104" width="140" height="26" as="geometry" />
        </mxCell>
        <mxCell id="kWJ2ibB3kTiv7gHBYrOh-1" value="- email: String" style="text;strokeColor=none;fillColor=none;align=left;verticalAlign=top;spacingLeft=4;spacingRight=4;overflow=hidden;rotatable=0;points=[[0,0.5],[1,0.5]];portConstraint=eastwest;whiteSpace=wrap;html=1;" parent="U9kjjQZTbyZQ_9Jxf5X5-0" vertex="1">
          <mxGeometry y="130" width="140" height="26" as="geometry" />
        </mxCell>
        <mxCell id="kWJ2ibB3kTiv7gHBYrOh-2" value="- phoneNumber: long" style="text;strokeColor=none;fillColor=none;align=left;verticalAlign=top;spacingLeft=4;spacingRight=4;overflow=hidden;rotatable=0;points=[[0,0.5],[1,0.5]];portConstraint=eastwest;whiteSpace=wrap;html=1;" parent="U9kjjQZTbyZQ_9Jxf5X5-0" vertex="1">
          <mxGeometry y="156" width="140" height="26" as="geometry" />
        </mxCell>
        <mxCell id="U9kjjQZTbyZQ_9Jxf5X5-27" value="- status: String" style="text;strokeColor=none;fillColor=none;align=left;verticalAlign=top;spacingLeft=4;spacingRight=4;overflow=hidden;rotatable=0;points=[[0,0.5],[1,0.5]];portConstraint=eastwest;whiteSpace=wrap;html=1;" parent="U9kjjQZTbyZQ_9Jxf5X5-0" vertex="1">
          <mxGeometry y="182" width="140" height="26" as="geometry" />
        </mxCell>
        <mxCell id="kWJ2ibB3kTiv7gHBYrOh-4" value="- ordeOn: instant" style="text;strokeColor=none;fillColor=none;align=left;verticalAlign=top;spacingLeft=4;spacingRight=4;overflow=hidden;rotatable=0;points=[[0,0.5],[1,0.5]];portConstraint=eastwest;whiteSpace=wrap;html=1;" parent="U9kjjQZTbyZQ_9Jxf5X5-0" vertex="1">
          <mxGeometry y="208" width="140" height="26" as="geometry" />
        </mxCell>
        <mxCell id="kWJ2ibB3kTiv7gHBYrOh-3" value="- deliveryOn: instant" style="text;strokeColor=none;fillColor=none;align=left;verticalAlign=top;spacingLeft=4;spacingRight=4;overflow=hidden;rotatable=0;points=[[0,0.5],[1,0.5]];portConstraint=eastwest;whiteSpace=wrap;html=1;" parent="U9kjjQZTbyZQ_9Jxf5X5-0" vertex="1">
          <mxGeometry y="234" width="140" height="26" as="geometry" />
        </mxCell>
        <mxCell id="SEqII5cva00iTsP6fJlL-37" value="- createdOn: instant" style="text;strokeColor=none;fillColor=none;align=left;verticalAlign=top;spacingLeft=4;spacingRight=4;overflow=hidden;rotatable=0;points=[[0,0.5],[1,0.5]];portConstraint=eastwest;whiteSpace=wrap;html=1;" parent="U9kjjQZTbyZQ_9Jxf5X5-0" vertex="1">
          <mxGeometry y="260" width="140" height="26" as="geometry" />
        </mxCell>
        <mxCell id="SEqII5cva00iTsP6fJlL-38" value="- modifiedOn: instant" style="text;strokeColor=none;fillColor=none;align=left;verticalAlign=top;spacingLeft=4;spacingRight=4;overflow=hidden;rotatable=0;points=[[0,0.5],[1,0.5]];portConstraint=eastwest;whiteSpace=wrap;html=1;" parent="U9kjjQZTbyZQ_9Jxf5X5-0" vertex="1">
          <mxGeometry y="286" width="140" height="26" as="geometry" />
        </mxCell>
        <mxCell id="U9kjjQZTbyZQ_9Jxf5X5-5" value="OrderItems" style="swimlane;fontStyle=0;childLayout=stackLayout;horizontal=1;startSize=26;fillColor=none;horizontalStack=0;resizeParent=1;resizeParentMax=0;resizeLast=0;collapsible=1;marginBottom=0;whiteSpace=wrap;html=1;" parent="WIyWlLk6GJQsqaUBKTNV-1" vertex="1">
          <mxGeometry x="330" y="1340" width="140" height="208" as="geometry" />
        </mxCell>
        <mxCell id="9bY6dy_Y-o_wbB-cEVPB-3" value="- id: long" style="text;strokeColor=none;fillColor=none;align=left;verticalAlign=top;spacingLeft=4;spacingRight=4;overflow=hidden;rotatable=0;points=[[0,0.5],[1,0.5]];portConstraint=eastwest;whiteSpace=wrap;html=1;" parent="U9kjjQZTbyZQ_9Jxf5X5-5" vertex="1">
          <mxGeometry y="26" width="140" height="26" as="geometry" />
        </mxCell>
        <mxCell id="U9kjjQZTbyZQ_9Jxf5X5-6" value="- orderId: long" style="text;strokeColor=none;fillColor=none;align=left;verticalAlign=top;spacingLeft=4;spacingRight=4;overflow=hidden;rotatable=0;points=[[0,0.5],[1,0.5]];portConstraint=eastwest;whiteSpace=wrap;html=1;" parent="U9kjjQZTbyZQ_9Jxf5X5-5" vertex="1">
          <mxGeometry y="52" width="140" height="26" as="geometry" />
        </mxCell>
        <mxCell id="U9kjjQZTbyZQ_9Jxf5X5-11" value="- foodItemId: long" style="text;strokeColor=none;fillColor=none;align=left;verticalAlign=top;spacingLeft=4;spacingRight=4;overflow=hidden;rotatable=0;points=[[0,0.5],[1,0.5]];portConstraint=eastwest;whiteSpace=wrap;html=1;" parent="U9kjjQZTbyZQ_9Jxf5X5-5" vertex="1">
          <mxGeometry y="78" width="140" height="26" as="geometry" />
        </mxCell>
        <mxCell id="U9kjjQZTbyZQ_9Jxf5X5-12" value="- quantity: int" style="text;strokeColor=none;fillColor=none;align=left;verticalAlign=top;spacingLeft=4;spacingRight=4;overflow=hidden;rotatable=0;points=[[0,0.5],[1,0.5]];portConstraint=eastwest;whiteSpace=wrap;html=1;" parent="U9kjjQZTbyZQ_9Jxf5X5-5" vertex="1">
          <mxGeometry y="104" width="140" height="26" as="geometry" />
        </mxCell>
        <mxCell id="U9kjjQZTbyZQ_9Jxf5X5-16" value="- cost: double" style="text;strokeColor=none;fillColor=none;align=left;verticalAlign=top;spacingLeft=4;spacingRight=4;overflow=hidden;rotatable=0;points=[[0,0.5],[1,0.5]];portConstraint=eastwest;whiteSpace=wrap;html=1;" parent="U9kjjQZTbyZQ_9Jxf5X5-5" vertex="1">
          <mxGeometry y="130" width="140" height="26" as="geometry" />
        </mxCell>
        <mxCell id="SEqII5cva00iTsP6fJlL-40" value="- modifiedOn: instant" style="text;strokeColor=none;fillColor=none;align=left;verticalAlign=top;spacingLeft=4;spacingRight=4;overflow=hidden;rotatable=0;points=[[0,0.5],[1,0.5]];portConstraint=eastwest;whiteSpace=wrap;html=1;" parent="U9kjjQZTbyZQ_9Jxf5X5-5" vertex="1">
          <mxGeometry y="156" width="140" height="26" as="geometry" />
        </mxCell>
        <mxCell id="SEqII5cva00iTsP6fJlL-39" value="- createdOn: instant" style="text;strokeColor=none;fillColor=none;align=left;verticalAlign=top;spacingLeft=4;spacingRight=4;overflow=hidden;rotatable=0;points=[[0,0.5],[1,0.5]];portConstraint=eastwest;whiteSpace=wrap;html=1;" parent="U9kjjQZTbyZQ_9Jxf5X5-5" vertex="1">
          <mxGeometry y="182" width="140" height="26" as="geometry" />
        </mxCell>
        <mxCell id="U9kjjQZTbyZQ_9Jxf5X5-14" style="edgeStyle=orthogonalEdgeStyle;rounded=0;orthogonalLoop=1;jettySize=auto;html=1;exitX=1;exitY=0.5;exitDx=0;exitDy=0;entryX=1;entryY=0.5;entryDx=0;entryDy=0;" parent="WIyWlLk6GJQsqaUBKTNV-1" source="9iNIqAyyCNV7hzXlOCOX-5" target="U9kjjQZTbyZQ_9Jxf5X5-11" edge="1">
          <mxGeometry relative="1" as="geometry">
            <Array as="points">
              <mxPoint x="780" y="449" />
              <mxPoint x="780" y="1431" />
            </Array>
          </mxGeometry>
        </mxCell>
        <mxCell id="U9kjjQZTbyZQ_9Jxf5X5-15" style="edgeStyle=orthogonalEdgeStyle;rounded=0;orthogonalLoop=1;jettySize=auto;html=1;entryX=0;entryY=0.5;entryDx=0;entryDy=0;" parent="WIyWlLk6GJQsqaUBKTNV-1" source="U9kjjQZTbyZQ_9Jxf5X5-1" target="U9kjjQZTbyZQ_9Jxf5X5-6" edge="1">
          <mxGeometry relative="1" as="geometry" />
        </mxCell>
        <mxCell id="U9kjjQZTbyZQ_9Jxf5X5-17" value="User" style="swimlane;fontStyle=0;childLayout=stackLayout;horizontal=1;startSize=26;fillColor=none;horizontalStack=0;resizeParent=1;resizeParentMax=0;resizeLast=0;collapsible=1;marginBottom=0;whiteSpace=wrap;html=1;" parent="WIyWlLk6GJQsqaUBKTNV-1" vertex="1">
          <mxGeometry x="200" width="140" height="182" as="geometry" />
        </mxCell>
        <mxCell id="U9kjjQZTbyZQ_9Jxf5X5-18" value="- id: long" style="text;strokeColor=none;fillColor=none;align=left;verticalAlign=top;spacingLeft=4;spacingRight=4;overflow=hidden;rotatable=0;points=[[0,0.5],[1,0.5]];portConstraint=eastwest;whiteSpace=wrap;html=1;" parent="U9kjjQZTbyZQ_9Jxf5X5-17" vertex="1">
          <mxGeometry y="26" width="140" height="26" as="geometry" />
        </mxCell>
        <mxCell id="U9kjjQZTbyZQ_9Jxf5X5-19" value="- name: String" style="text;strokeColor=none;fillColor=none;align=left;verticalAlign=top;spacingLeft=4;spacingRight=4;overflow=hidden;rotatable=0;points=[[0,0.5],[1,0.5]];portConstraint=eastwest;whiteSpace=wrap;html=1;" parent="U9kjjQZTbyZQ_9Jxf5X5-17" vertex="1">
          <mxGeometry y="52" width="140" height="26" as="geometry" />
        </mxCell>
        <mxCell id="U9kjjQZTbyZQ_9Jxf5X5-20" value="- userName: String" style="text;strokeColor=none;fillColor=none;align=left;verticalAlign=top;spacingLeft=4;spacingRight=4;overflow=hidden;rotatable=0;points=[[0,0.5],[1,0.5]];portConstraint=eastwest;whiteSpace=wrap;html=1;" parent="U9kjjQZTbyZQ_9Jxf5X5-17" vertex="1">
          <mxGeometry y="78" width="140" height="26" as="geometry" />
        </mxCell>
        <mxCell id="U9kjjQZTbyZQ_9Jxf5X5-22" value="- password: String" style="text;strokeColor=none;fillColor=none;align=left;verticalAlign=top;spacingLeft=4;spacingRight=4;overflow=hidden;rotatable=0;points=[[0,0.5],[1,0.5]];portConstraint=eastwest;whiteSpace=wrap;html=1;" parent="U9kjjQZTbyZQ_9Jxf5X5-17" vertex="1">
          <mxGeometry y="104" width="140" height="26" as="geometry" />
        </mxCell>
        <mxCell id="SEqII5cva00iTsP6fJlL-19" value="- createdOn: instant" style="text;strokeColor=none;fillColor=none;align=left;verticalAlign=top;spacingLeft=4;spacingRight=4;overflow=hidden;rotatable=0;points=[[0,0.5],[1,0.5]];portConstraint=eastwest;whiteSpace=wrap;html=1;" parent="U9kjjQZTbyZQ_9Jxf5X5-17" vertex="1">
          <mxGeometry y="130" width="140" height="26" as="geometry" />
        </mxCell>
        <mxCell id="SEqII5cva00iTsP6fJlL-20" value="- modifiedOn: instant" style="text;strokeColor=none;fillColor=none;align=left;verticalAlign=top;spacingLeft=4;spacingRight=4;overflow=hidden;rotatable=0;points=[[0,0.5],[1,0.5]];portConstraint=eastwest;whiteSpace=wrap;html=1;" parent="U9kjjQZTbyZQ_9Jxf5X5-17" vertex="1">
          <mxGeometry y="156" width="140" height="26" as="geometry" />
        </mxCell>
        <mxCell id="U9kjjQZTbyZQ_9Jxf5X5-21" value="User" style="text;align=center;fontStyle=1;verticalAlign=middle;spacingLeft=3;spacingRight=3;strokeColor=none;rotatable=0;points=[[0,0.5],[1,0.5]];portConstraint=eastwest;html=1;" parent="WIyWlLk6GJQsqaUBKTNV-1" vertex="1">
          <mxGeometry x="10" y="-93" width="80" height="26" as="geometry" />
        </mxCell>
        <mxCell id="U9kjjQZTbyZQ_9Jxf5X5-26" style="edgeStyle=orthogonalEdgeStyle;rounded=0;orthogonalLoop=1;jettySize=auto;html=1;entryX=0;entryY=0.5;entryDx=0;entryDy=0;" parent="WIyWlLk6GJQsqaUBKTNV-1" source="U9kjjQZTbyZQ_9Jxf5X5-18" target="U9kjjQZTbyZQ_9Jxf5X5-2" edge="1">
          <mxGeometry relative="1" as="geometry">
            <Array as="points">
              <mxPoint x="120" y="39" />
              <mxPoint x="120" y="1045" />
            </Array>
          </mxGeometry>
        </mxCell>
        <mxCell id="9bY6dy_Y-o_wbB-cEVPB-2" style="edgeStyle=orthogonalEdgeStyle;rounded=0;orthogonalLoop=1;jettySize=auto;html=1;entryX=0;entryY=0.5;entryDx=0;entryDy=0;" parent="WIyWlLk6GJQsqaUBKTNV-1" source="EK7-1azk1SZdzm0tzNyr-0" target="EK7-1azk1SZdzm0tzNyr-8" edge="1">
          <mxGeometry relative="1" as="geometry">
            <Array as="points">
              <mxPoint x="370" y="240" />
              <mxPoint x="370" y="120" />
            </Array>
          </mxGeometry>
        </mxCell>
        <mxCell id="EK7-1azk1SZdzm0tzNyr-0" value="Role" style="swimlane;fontStyle=0;childLayout=stackLayout;horizontal=1;startSize=30;horizontalStack=0;resizeParent=1;resizeParentMax=0;resizeLast=0;collapsible=1;marginBottom=0;whiteSpace=wrap;html=1;" parent="WIyWlLk6GJQsqaUBKTNV-1" vertex="1">
          <mxGeometry x="200" y="190" width="140" height="142" as="geometry" />
        </mxCell>
        <mxCell id="EK7-1azk1SZdzm0tzNyr-1" value="- id: long" style="text;strokeColor=none;fillColor=none;align=left;verticalAlign=middle;spacingLeft=4;spacingRight=4;overflow=hidden;points=[[0,0.5],[1,0.5]];portConstraint=eastwest;rotatable=0;whiteSpace=wrap;html=1;" parent="EK7-1azk1SZdzm0tzNyr-0" vertex="1">
          <mxGeometry y="30" width="140" height="30" as="geometry" />
        </mxCell>
        <mxCell id="EK7-1azk1SZdzm0tzNyr-2" value="- name: String" style="text;strokeColor=none;fillColor=none;align=left;verticalAlign=middle;spacingLeft=4;spacingRight=4;overflow=hidden;points=[[0,0.5],[1,0.5]];portConstraint=eastwest;rotatable=0;whiteSpace=wrap;html=1;" parent="EK7-1azk1SZdzm0tzNyr-0" vertex="1">
          <mxGeometry y="60" width="140" height="30" as="geometry" />
        </mxCell>
        <mxCell id="SEqII5cva00iTsP6fJlL-21" value="- createdOn: instant" style="text;strokeColor=none;fillColor=none;align=left;verticalAlign=top;spacingLeft=4;spacingRight=4;overflow=hidden;rotatable=0;points=[[0,0.5],[1,0.5]];portConstraint=eastwest;whiteSpace=wrap;html=1;" parent="EK7-1azk1SZdzm0tzNyr-0" vertex="1">
          <mxGeometry y="90" width="140" height="26" as="geometry" />
        </mxCell>
        <mxCell id="SEqII5cva00iTsP6fJlL-22" value="- modifiedOn: instant" style="text;strokeColor=none;fillColor=none;align=left;verticalAlign=top;spacingLeft=4;spacingRight=4;overflow=hidden;rotatable=0;points=[[0,0.5],[1,0.5]];portConstraint=eastwest;whiteSpace=wrap;html=1;" parent="EK7-1azk1SZdzm0tzNyr-0" vertex="1">
          <mxGeometry y="116" width="140" height="26" as="geometry" />
        </mxCell>
        <mxCell id="EK7-1azk1SZdzm0tzNyr-5" value="UserRoleMap" style="swimlane;fontStyle=0;childLayout=stackLayout;horizontal=1;startSize=30;horizontalStack=0;resizeParent=1;resizeParentMax=0;resizeLast=0;collapsible=1;marginBottom=0;whiteSpace=wrap;html=1;" parent="WIyWlLk6GJQsqaUBKTNV-1" vertex="1">
          <mxGeometry x="450" y="15" width="140" height="172" as="geometry" />
        </mxCell>
        <mxCell id="EK7-1azk1SZdzm0tzNyr-6" value="- id: long" style="text;strokeColor=none;fillColor=none;align=left;verticalAlign=middle;spacingLeft=4;spacingRight=4;overflow=hidden;points=[[0,0.5],[1,0.5]];portConstraint=eastwest;rotatable=0;whiteSpace=wrap;html=1;" parent="EK7-1azk1SZdzm0tzNyr-5" vertex="1">
          <mxGeometry y="30" width="140" height="30" as="geometry" />
        </mxCell>
        <mxCell id="EK7-1azk1SZdzm0tzNyr-7" value="- userId: long" style="text;strokeColor=none;fillColor=none;align=left;verticalAlign=middle;spacingLeft=4;spacingRight=4;overflow=hidden;points=[[0,0.5],[1,0.5]];portConstraint=eastwest;rotatable=0;whiteSpace=wrap;html=1;" parent="EK7-1azk1SZdzm0tzNyr-5" vertex="1">
          <mxGeometry y="60" width="140" height="30" as="geometry" />
        </mxCell>
        <mxCell id="EK7-1azk1SZdzm0tzNyr-8" value="- roleId: long" style="text;strokeColor=none;fillColor=none;align=left;verticalAlign=middle;spacingLeft=4;spacingRight=4;overflow=hidden;points=[[0,0.5],[1,0.5]];portConstraint=eastwest;rotatable=0;whiteSpace=wrap;html=1;" parent="EK7-1azk1SZdzm0tzNyr-5" vertex="1">
          <mxGeometry y="90" width="140" height="30" as="geometry" />
        </mxCell>
        <mxCell id="SEqII5cva00iTsP6fJlL-23" value="- createdOn: instant" style="text;strokeColor=none;fillColor=none;align=left;verticalAlign=top;spacingLeft=4;spacingRight=4;overflow=hidden;rotatable=0;points=[[0,0.5],[1,0.5]];portConstraint=eastwest;whiteSpace=wrap;html=1;" parent="EK7-1azk1SZdzm0tzNyr-5" vertex="1">
          <mxGeometry y="120" width="140" height="26" as="geometry" />
        </mxCell>
        <mxCell id="SEqII5cva00iTsP6fJlL-24" value="- modifiedOn: instant" style="text;strokeColor=none;fillColor=none;align=left;verticalAlign=top;spacingLeft=4;spacingRight=4;overflow=hidden;rotatable=0;points=[[0,0.5],[1,0.5]];portConstraint=eastwest;whiteSpace=wrap;html=1;" parent="EK7-1azk1SZdzm0tzNyr-5" vertex="1">
          <mxGeometry y="146" width="140" height="26" as="geometry" />
        </mxCell>
        <mxCell id="9bY6dy_Y-o_wbB-cEVPB-5" style="edgeStyle=orthogonalEdgeStyle;rounded=0;orthogonalLoop=1;jettySize=auto;html=1;entryX=0;entryY=0.5;entryDx=0;entryDy=0;" parent="WIyWlLk6GJQsqaUBKTNV-1" source="U9kjjQZTbyZQ_9Jxf5X5-18" target="EK7-1azk1SZdzm0tzNyr-7" edge="1">
          <mxGeometry relative="1" as="geometry" />
        </mxCell>
        <mxCell id="9bY6dy_Y-o_wbB-cEVPB-6" value="UserAddressMap" style="swimlane;fontStyle=0;childLayout=stackLayout;horizontal=1;startSize=30;horizontalStack=0;resizeParent=1;resizeParentMax=0;resizeLast=0;collapsible=1;marginBottom=0;whiteSpace=wrap;html=1;" parent="WIyWlLk6GJQsqaUBKTNV-1" vertex="1">
          <mxGeometry x="640" y="-25" width="140" height="352" as="geometry" />
        </mxCell>
        <mxCell id="9bY6dy_Y-o_wbB-cEVPB-7" value="- id: long" style="text;strokeColor=none;fillColor=none;align=left;verticalAlign=middle;spacingLeft=4;spacingRight=4;overflow=hidden;points=[[0,0.5],[1,0.5]];portConstraint=eastwest;rotatable=0;whiteSpace=wrap;html=1;" parent="9bY6dy_Y-o_wbB-cEVPB-6" vertex="1">
          <mxGeometry y="30" width="140" height="30" as="geometry" />
        </mxCell>
        <mxCell id="9bY6dy_Y-o_wbB-cEVPB-8" value="- userId: int" style="text;strokeColor=none;fillColor=none;align=left;verticalAlign=middle;spacingLeft=4;spacingRight=4;overflow=hidden;points=[[0,0.5],[1,0.5]];portConstraint=eastwest;rotatable=0;whiteSpace=wrap;html=1;" parent="9bY6dy_Y-o_wbB-cEVPB-6" vertex="1">
          <mxGeometry y="60" width="140" height="30" as="geometry" />
        </mxCell>
        <mxCell id="9bY6dy_Y-o_wbB-cEVPB-9" value="- doorNo: String" style="text;strokeColor=none;fillColor=none;align=left;verticalAlign=middle;spacingLeft=4;spacingRight=4;overflow=hidden;points=[[0,0.5],[1,0.5]];portConstraint=eastwest;rotatable=0;whiteSpace=wrap;html=1;" parent="9bY6dy_Y-o_wbB-cEVPB-6" vertex="1">
          <mxGeometry y="90" width="140" height="30" as="geometry" />
        </mxCell>
        <mxCell id="SEqII5cva00iTsP6fJlL-1" value="- streetName: String" style="text;strokeColor=none;fillColor=none;align=left;verticalAlign=middle;spacingLeft=4;spacingRight=4;overflow=hidden;points=[[0,0.5],[1,0.5]];portConstraint=eastwest;rotatable=0;whiteSpace=wrap;html=1;" parent="9bY6dy_Y-o_wbB-cEVPB-6" vertex="1">
          <mxGeometry y="120" width="140" height="30" as="geometry" />
        </mxCell>
        <mxCell id="SEqII5cva00iTsP6fJlL-2" value="- city: String" style="text;strokeColor=none;fillColor=none;align=left;verticalAlign=middle;spacingLeft=4;spacingRight=4;overflow=hidden;points=[[0,0.5],[1,0.5]];portConstraint=eastwest;rotatable=0;whiteSpace=wrap;html=1;" parent="9bY6dy_Y-o_wbB-cEVPB-6" vertex="1">
          <mxGeometry y="150" width="140" height="30" as="geometry" />
        </mxCell>
        <mxCell id="SEqII5cva00iTsP6fJlL-3" value="- district: String" style="text;strokeColor=none;fillColor=none;align=left;verticalAlign=middle;spacingLeft=4;spacingRight=4;overflow=hidden;points=[[0,0.5],[1,0.5]];portConstraint=eastwest;rotatable=0;whiteSpace=wrap;html=1;" parent="9bY6dy_Y-o_wbB-cEVPB-6" vertex="1">
          <mxGeometry y="180" width="140" height="30" as="geometry" />
        </mxCell>
        <mxCell id="SEqII5cva00iTsP6fJlL-4" value="- state: String" style="text;strokeColor=none;fillColor=none;align=left;verticalAlign=middle;spacingLeft=4;spacingRight=4;overflow=hidden;points=[[0,0.5],[1,0.5]];portConstraint=eastwest;rotatable=0;whiteSpace=wrap;html=1;" parent="9bY6dy_Y-o_wbB-cEVPB-6" vertex="1">
          <mxGeometry y="210" width="140" height="30" as="geometry" />
        </mxCell>
        <mxCell id="SEqII5cva00iTsP6fJlL-0" value="- pincode: long" style="text;strokeColor=none;fillColor=none;align=left;verticalAlign=middle;spacingLeft=4;spacingRight=4;overflow=hidden;points=[[0,0.5],[1,0.5]];portConstraint=eastwest;rotatable=0;whiteSpace=wrap;html=1;" parent="9bY6dy_Y-o_wbB-cEVPB-6" vertex="1">
          <mxGeometry y="240" width="140" height="30" as="geometry" />
        </mxCell>
        <mxCell id="SEqII5cva00iTsP6fJlL-5" value="- landMark: String" style="text;strokeColor=none;fillColor=none;align=left;verticalAlign=middle;spacingLeft=4;spacingRight=4;overflow=hidden;points=[[0,0.5],[1,0.5]];portConstraint=eastwest;rotatable=0;whiteSpace=wrap;html=1;" parent="9bY6dy_Y-o_wbB-cEVPB-6" vertex="1">
          <mxGeometry y="270" width="140" height="30" as="geometry" />
        </mxCell>
        <mxCell id="SEqII5cva00iTsP6fJlL-25" value="- createdOn: instant" style="text;strokeColor=none;fillColor=none;align=left;verticalAlign=top;spacingLeft=4;spacingRight=4;overflow=hidden;rotatable=0;points=[[0,0.5],[1,0.5]];portConstraint=eastwest;whiteSpace=wrap;html=1;" parent="9bY6dy_Y-o_wbB-cEVPB-6" vertex="1">
          <mxGeometry y="300" width="140" height="26" as="geometry" />
        </mxCell>
        <mxCell id="SEqII5cva00iTsP6fJlL-26" value="- modifiedOn: instant" style="text;strokeColor=none;fillColor=none;align=left;verticalAlign=top;spacingLeft=4;spacingRight=4;overflow=hidden;rotatable=0;points=[[0,0.5],[1,0.5]];portConstraint=eastwest;whiteSpace=wrap;html=1;" parent="9bY6dy_Y-o_wbB-cEVPB-6" vertex="1">
          <mxGeometry y="326" width="140" height="26" as="geometry" />
        </mxCell>
        <mxCell id="SEqII5cva00iTsP6fJlL-6" style="edgeStyle=orthogonalEdgeStyle;rounded=0;orthogonalLoop=1;jettySize=auto;html=1;entryX=1;entryY=0.5;entryDx=0;entryDy=0;exitX=1;exitY=0.5;exitDx=0;exitDy=0;" parent="WIyWlLk6GJQsqaUBKTNV-1" source="9bY6dy_Y-o_wbB-cEVPB-7" target="kWJ2ibB3kTiv7gHBYrOh-0" edge="1">
          <mxGeometry relative="1" as="geometry">
            <Array as="points">
              <mxPoint x="780" y="90" />
              <mxPoint x="810" y="90" />
              <mxPoint x="810" y="1070" />
            </Array>
          </mxGeometry>
        </mxCell>
        <mxCell id="SEqII5cva00iTsP6fJlL-7" style="edgeStyle=orthogonalEdgeStyle;rounded=0;orthogonalLoop=1;jettySize=auto;html=1;exitX=1;exitY=0.5;exitDx=0;exitDy=0;" parent="WIyWlLk6GJQsqaUBKTNV-1" source="U9kjjQZTbyZQ_9Jxf5X5-18" target="9bY6dy_Y-o_wbB-cEVPB-8" edge="1">
          <mxGeometry relative="1" as="geometry">
            <Array as="points">
              <mxPoint x="360" y="39" />
              <mxPoint x="360" y="10" />
              <mxPoint x="620" y="10" />
              <mxPoint x="620" y="50" />
            </Array>
          </mxGeometry>
        </mxCell>
        <mxCell id="SEqII5cva00iTsP6fJlL-8" value="Availability" style="swimlane;fontStyle=0;childLayout=stackLayout;horizontal=1;startSize=30;horizontalStack=0;resizeParent=1;resizeParentMax=0;resizeLast=0;collapsible=1;marginBottom=0;whiteSpace=wrap;html=1;" parent="WIyWlLk6GJQsqaUBKTNV-1" vertex="1">
          <mxGeometry x="170" y="580" width="140" height="142" as="geometry" />
        </mxCell>
        <mxCell id="SEqII5cva00iTsP6fJlL-9" value="- id: long" style="text;strokeColor=none;fillColor=none;align=left;verticalAlign=middle;spacingLeft=4;spacingRight=4;overflow=hidden;points=[[0,0.5],[1,0.5]];portConstraint=eastwest;rotatable=0;whiteSpace=wrap;html=1;" parent="SEqII5cva00iTsP6fJlL-8" vertex="1">
          <mxGeometry y="30" width="140" height="30" as="geometry" />
        </mxCell>
        <mxCell id="SEqII5cva00iTsP6fJlL-10" value="- day: String" style="text;strokeColor=none;fillColor=none;align=left;verticalAlign=middle;spacingLeft=4;spacingRight=4;overflow=hidden;points=[[0,0.5],[1,0.5]];portConstraint=eastwest;rotatable=0;whiteSpace=wrap;html=1;" parent="SEqII5cva00iTsP6fJlL-8" vertex="1">
          <mxGeometry y="60" width="140" height="30" as="geometry" />
        </mxCell>
        <mxCell id="SEqII5cva00iTsP6fJlL-30" value="- createdOn: instant" style="text;strokeColor=none;fillColor=none;align=left;verticalAlign=top;spacingLeft=4;spacingRight=4;overflow=hidden;rotatable=0;points=[[0,0.5],[1,0.5]];portConstraint=eastwest;whiteSpace=wrap;html=1;" parent="SEqII5cva00iTsP6fJlL-8" vertex="1">
          <mxGeometry y="90" width="140" height="26" as="geometry" />
        </mxCell>
        <mxCell id="SEqII5cva00iTsP6fJlL-29" value="- modifiedOn: instant" style="text;strokeColor=none;fillColor=none;align=left;verticalAlign=top;spacingLeft=4;spacingRight=4;overflow=hidden;rotatable=0;points=[[0,0.5],[1,0.5]];portConstraint=eastwest;whiteSpace=wrap;html=1;" parent="SEqII5cva00iTsP6fJlL-8" vertex="1">
          <mxGeometry y="116" width="140" height="26" as="geometry" />
        </mxCell>
        <mxCell id="SEqII5cva00iTsP6fJlL-12" value="&lt;font style=&quot;font-size: 11px;&quot;&gt;FoodMenuAvailablilityMap&lt;/font&gt;" style="swimlane;fontStyle=0;childLayout=stackLayout;horizontal=1;startSize=30;horizontalStack=0;resizeParent=1;resizeParentMax=0;resizeLast=0;collapsible=1;marginBottom=0;whiteSpace=wrap;html=1;" parent="WIyWlLk6GJQsqaUBKTNV-1" vertex="1">
          <mxGeometry x="460" y="640" width="140" height="172" as="geometry" />
        </mxCell>
        <mxCell id="SEqII5cva00iTsP6fJlL-16" value="- id: long" style="text;strokeColor=none;fillColor=none;align=left;verticalAlign=middle;spacingLeft=4;spacingRight=4;overflow=hidden;points=[[0,0.5],[1,0.5]];portConstraint=eastwest;rotatable=0;whiteSpace=wrap;html=1;" parent="SEqII5cva00iTsP6fJlL-12" vertex="1">
          <mxGeometry y="30" width="140" height="30" as="geometry" />
        </mxCell>
        <mxCell id="SEqII5cva00iTsP6fJlL-14" value="- foodMenuId : long" style="text;strokeColor=none;fillColor=none;align=left;verticalAlign=middle;spacingLeft=4;spacingRight=4;overflow=hidden;points=[[0,0.5],[1,0.5]];portConstraint=eastwest;rotatable=0;whiteSpace=wrap;html=1;" parent="SEqII5cva00iTsP6fJlL-12" vertex="1">
          <mxGeometry y="60" width="140" height="30" as="geometry" />
        </mxCell>
        <mxCell id="SEqII5cva00iTsP6fJlL-15" value="- availabilityId : long" style="text;strokeColor=none;fillColor=none;align=left;verticalAlign=middle;spacingLeft=4;spacingRight=4;overflow=hidden;points=[[0,0.5],[1,0.5]];portConstraint=eastwest;rotatable=0;whiteSpace=wrap;html=1;" parent="SEqII5cva00iTsP6fJlL-12" vertex="1">
          <mxGeometry y="90" width="140" height="30" as="geometry" />
        </mxCell>
        <mxCell id="SEqII5cva00iTsP6fJlL-36" value="- createdOn: instant" style="text;strokeColor=none;fillColor=none;align=left;verticalAlign=top;spacingLeft=4;spacingRight=4;overflow=hidden;rotatable=0;points=[[0,0.5],[1,0.5]];portConstraint=eastwest;whiteSpace=wrap;html=1;" parent="SEqII5cva00iTsP6fJlL-12" vertex="1">
          <mxGeometry y="120" width="140" height="26" as="geometry" />
        </mxCell>
        <mxCell id="SEqII5cva00iTsP6fJlL-35" value="- modifiedOn: instant" style="text;strokeColor=none;fillColor=none;align=left;verticalAlign=top;spacingLeft=4;spacingRight=4;overflow=hidden;rotatable=0;points=[[0,0.5],[1,0.5]];portConstraint=eastwest;whiteSpace=wrap;html=1;" parent="SEqII5cva00iTsP6fJlL-12" vertex="1">
          <mxGeometry y="146" width="140" height="26" as="geometry" />
        </mxCell>
        <mxCell id="SEqII5cva00iTsP6fJlL-17" style="edgeStyle=orthogonalEdgeStyle;rounded=0;orthogonalLoop=1;jettySize=auto;html=1;entryX=0;entryY=0.5;entryDx=0;entryDy=0;" parent="WIyWlLk6GJQsqaUBKTNV-1" source="SEqII5cva00iTsP6fJlL-9" target="SEqII5cva00iTsP6fJlL-15" edge="1">
          <mxGeometry relative="1" as="geometry">
            <Array as="points">
              <mxPoint x="385" y="620" />
              <mxPoint x="385" y="745" />
            </Array>
          </mxGeometry>
        </mxCell>
        <mxCell id="SEqII5cva00iTsP6fJlL-18" style="edgeStyle=orthogonalEdgeStyle;rounded=0;orthogonalLoop=1;jettySize=auto;html=1;entryX=0;entryY=0.5;entryDx=0;entryDy=0;" parent="WIyWlLk6GJQsqaUBKTNV-1" source="9iNIqAyyCNV7hzXlOCOX-1" target="SEqII5cva00iTsP6fJlL-14" edge="1">
          <mxGeometry relative="1" as="geometry">
            <Array as="points">
              <mxPoint x="410" y="449" />
              <mxPoint x="410" y="715" />
            </Array>
          </mxGeometry>
        </mxCell>
      </root>
    </mxGraphModel>
  </diagram>
  <diagram id="p2eJAm5pJoJdSyefINjL" name="Components_Diagram">
    <mxGraphModel dx="1434" dy="843" grid="1" gridSize="10" guides="1" tooltips="1" connect="1" arrows="1" fold="1" page="1" pageScale="1" pageWidth="827" pageHeight="1169" math="0" shadow="0">
      <root>
        <mxCell id="0" />
        <mxCell id="1" parent="0" />
        <mxCell id="-oMTpsYoTi2_B5iNwNbV-10" style="edgeStyle=orthogonalEdgeStyle;rounded=0;orthogonalLoop=1;jettySize=auto;html=1;entryX=0.12;entryY=0.5;entryDx=0;entryDy=0;entryPerimeter=0;" parent="1" source="-oMTpsYoTi2_B5iNwNbV-5" target="-oMTpsYoTi2_B5iNwNbV-6" edge="1">
          <mxGeometry relative="1" as="geometry" />
        </mxCell>
        <mxCell id="-oMTpsYoTi2_B5iNwNbV-5" value="Application" style="shape=module;align=left;spacingLeft=20;align=center;verticalAlign=top;whiteSpace=wrap;html=1;" parent="1" vertex="1">
          <mxGeometry x="120" y="200" width="100" height="50" as="geometry" />
        </mxCell>
        <mxCell id="-oMTpsYoTi2_B5iNwNbV-12" style="edgeStyle=orthogonalEdgeStyle;rounded=0;orthogonalLoop=1;jettySize=auto;html=1;entryX=0.03;entryY=0.5;entryDx=0;entryDy=0;entryPerimeter=0;" parent="1" source="-oMTpsYoTi2_B5iNwNbV-6" target="-oMTpsYoTi2_B5iNwNbV-7" edge="1">
          <mxGeometry relative="1" as="geometry" />
        </mxCell>
        <mxCell id="tQDzjDfRIo-63mkRoyky-1" style="edgeStyle=orthogonalEdgeStyle;rounded=0;orthogonalLoop=1;jettySize=auto;html=1;exitX=0.75;exitY=1;exitDx=0;exitDy=0;entryX=0.65;entryY=0.02;entryDx=0;entryDy=0;entryPerimeter=0;" parent="1" source="-oMTpsYoTi2_B5iNwNbV-6" target="-oMTpsYoTi2_B5iNwNbV-8" edge="1">
          <mxGeometry relative="1" as="geometry" />
        </mxCell>
        <mxCell id="qKgzbdt0jzNQ62E-1K3f-3" style="edgeStyle=orthogonalEdgeStyle;rounded=0;orthogonalLoop=1;jettySize=auto;html=1;" parent="1" source="-oMTpsYoTi2_B5iNwNbV-6" edge="1">
          <mxGeometry relative="1" as="geometry">
            <mxPoint x="390" y="490" as="targetPoint" />
          </mxGeometry>
        </mxCell>
        <mxCell id="-oMTpsYoTi2_B5iNwNbV-6" value="User" style="shape=module;align=left;spacingLeft=20;align=center;verticalAlign=top;whiteSpace=wrap;html=1;" parent="1" vertex="1">
          <mxGeometry x="340" y="200" width="100" height="50" as="geometry" />
        </mxCell>
        <mxCell id="qKgzbdt0jzNQ62E-1K3f-5" style="edgeStyle=orthogonalEdgeStyle;rounded=0;orthogonalLoop=1;jettySize=auto;html=1;entryX=1;entryY=0.7;entryDx=0;entryDy=0;" parent="1" source="-oMTpsYoTi2_B5iNwNbV-7" target="qKgzbdt0jzNQ62E-1K3f-2" edge="1">
          <mxGeometry relative="1" as="geometry" />
        </mxCell>
        <mxCell id="-oMTpsYoTi2_B5iNwNbV-7" value="Food" style="shape=module;align=left;spacingLeft=20;align=center;verticalAlign=top;whiteSpace=wrap;html=1;" parent="1" vertex="1">
          <mxGeometry x="570" y="200" width="100" height="50" as="geometry" />
        </mxCell>
        <mxCell id="qKgzbdt0jzNQ62E-1K3f-4" style="edgeStyle=orthogonalEdgeStyle;rounded=0;orthogonalLoop=1;jettySize=auto;html=1;entryX=1;entryY=0.5;entryDx=0;entryDy=0;" parent="1" source="-oMTpsYoTi2_B5iNwNbV-8" target="qKgzbdt0jzNQ62E-1K3f-2" edge="1">
          <mxGeometry relative="1" as="geometry" />
        </mxCell>
        <mxCell id="-oMTpsYoTi2_B5iNwNbV-8" value="Order" style="shape=module;align=left;spacingLeft=20;align=center;verticalAlign=top;whiteSpace=wrap;html=1;" parent="1" vertex="1">
          <mxGeometry x="600" y="410" width="100" height="50" as="geometry" />
        </mxCell>
        <mxCell id="qKgzbdt0jzNQ62E-1K3f-2" value="Database" style="shape=datastore;whiteSpace=wrap;html=1;" parent="1" vertex="1">
          <mxGeometry x="360" y="490" width="60" height="60" as="geometry" />
        </mxCell>
      </root>
    </mxGraphModel>
  </diagram>
  <diagram id="dOoObzBfIJKSHeW7pnU8" name="Admin_Sequential_Diagram ">
    <mxGraphModel dx="1434" dy="843" grid="1" gridSize="10" guides="1" tooltips="1" connect="1" arrows="1" fold="1" page="1" pageScale="1" pageWidth="827" pageHeight="1169" math="0" shadow="0">
      <root>
        <mxCell id="0" />
        <mxCell id="1" parent="0" />
        <mxCell id="hJt7vq7obrux9Y3bkEPD-2" value="" style="shape=umlLifeline;perimeter=lifelinePerimeter;whiteSpace=wrap;html=1;container=1;dropTarget=0;collapsible=0;recursiveResize=0;outlineConnect=0;portConstraint=eastwest;newEdgeStyle={&quot;edgeStyle&quot;:&quot;elbowEdgeStyle&quot;,&quot;elbow&quot;:&quot;vertical&quot;,&quot;curved&quot;:0,&quot;rounded&quot;:0};participant=umlActor;" parent="1" vertex="1">
          <mxGeometry x="70" y="80" width="20" height="1040" as="geometry" />
        </mxCell>
        <mxCell id="7JsROuQPUuiL9D5bBK-P-22" value="" style="html=1;points=[];perimeter=orthogonalPerimeter;outlineConnect=0;targetShapes=umlLifeline;portConstraint=eastwest;newEdgeStyle={&quot;edgeStyle&quot;:&quot;elbowEdgeStyle&quot;,&quot;elbow&quot;:&quot;vertical&quot;,&quot;curved&quot;:0,&quot;rounded&quot;:0};" parent="hJt7vq7obrux9Y3bkEPD-2" vertex="1">
          <mxGeometry x="5" y="58" width="10" height="972" as="geometry" />
        </mxCell>
        <mxCell id="hJt7vq7obrux9Y3bkEPD-4" value="Database" style="shape=umlLifeline;perimeter=lifelinePerimeter;whiteSpace=wrap;html=1;container=1;dropTarget=0;collapsible=0;recursiveResize=0;outlineConnect=0;portConstraint=eastwest;newEdgeStyle={&quot;edgeStyle&quot;:&quot;elbowEdgeStyle&quot;,&quot;elbow&quot;:&quot;vertical&quot;,&quot;curved&quot;:0,&quot;rounded&quot;:0};" parent="1" vertex="1">
          <mxGeometry x="631" y="80" width="100" height="1040" as="geometry" />
        </mxCell>
        <mxCell id="hJt7vq7obrux9Y3bkEPD-5" value="User" style="shape=umlLifeline;perimeter=lifelinePerimeter;whiteSpace=wrap;html=1;container=1;dropTarget=0;collapsible=0;recursiveResize=0;outlineConnect=0;portConstraint=eastwest;newEdgeStyle={&quot;edgeStyle&quot;:&quot;elbowEdgeStyle&quot;,&quot;elbow&quot;:&quot;vertical&quot;,&quot;curved&quot;:0,&quot;rounded&quot;:0};" parent="1" vertex="1">
          <mxGeometry x="230" y="80" width="100" height="1040" as="geometry" />
        </mxCell>
        <mxCell id="hJt7vq7obrux9Y3bkEPD-6" value="Food" style="shape=umlLifeline;perimeter=lifelinePerimeter;whiteSpace=wrap;html=1;container=1;dropTarget=0;collapsible=0;recursiveResize=0;outlineConnect=0;portConstraint=eastwest;newEdgeStyle={&quot;edgeStyle&quot;:&quot;elbowEdgeStyle&quot;,&quot;elbow&quot;:&quot;vertical&quot;,&quot;curved&quot;:0,&quot;rounded&quot;:0};" parent="1" vertex="1">
          <mxGeometry x="420" y="80" width="100" height="1040" as="geometry" />
        </mxCell>
        <mxCell id="pRyiRB4UjNgPb9oDDuR_-1" value="" style="endArrow=classic;html=1;rounded=0;" parent="1" source="hJt7vq7obrux9Y3bkEPD-2" target="hJt7vq7obrux9Y3bkEPD-5" edge="1">
          <mxGeometry width="50" height="50" relative="1" as="geometry">
            <mxPoint x="59.5" y="170" as="sourcePoint" />
            <mxPoint x="179.5" y="170" as="targetPoint" />
            <Array as="points">
              <mxPoint x="160" y="170" />
            </Array>
          </mxGeometry>
        </mxCell>
        <mxCell id="pRyiRB4UjNgPb9oDDuR_-2" value="" style="endArrow=classic;html=1;rounded=0;" parent="1" source="hJt7vq7obrux9Y3bkEPD-5" edge="1">
          <mxGeometry width="50" height="50" relative="1" as="geometry">
            <mxPoint x="239.5" y="190" as="sourcePoint" />
            <mxPoint x="680" y="190" as="targetPoint" />
          </mxGeometry>
        </mxCell>
        <mxCell id="pRyiRB4UjNgPb9oDDuR_-3" value="&lt;font style=&quot;font-size: 9px;&quot;&gt;User Login&lt;/font&gt;" style="text;html=1;align=center;verticalAlign=middle;resizable=0;points=[];autosize=1;strokeColor=none;fillColor=none;" parent="1" vertex="1">
          <mxGeometry x="125" y="138" width="70" height="30" as="geometry" />
        </mxCell>
        <mxCell id="pRyiRB4UjNgPb9oDDuR_-4" value="&lt;font style=&quot;font-size: 9px;&quot;&gt;Checking for the &lt;br&gt;User Credentials&lt;/font&gt;" style="text;html=1;align=center;verticalAlign=middle;resizable=0;points=[];autosize=1;strokeColor=none;fillColor=none;" parent="1" vertex="1">
          <mxGeometry x="525" y="153" width="90" height="40" as="geometry" />
        </mxCell>
        <mxCell id="pRyiRB4UjNgPb9oDDuR_-5" value="Alternative" style="shape=umlFrame;whiteSpace=wrap;html=1;pointerEvents=0;width=80;height=20;" parent="1" vertex="1">
          <mxGeometry x="10" y="210" width="770" height="120" as="geometry" />
        </mxCell>
        <mxCell id="pRyiRB4UjNgPb9oDDuR_-6" value="" style="endArrow=none;dashed=1;html=1;dashPattern=1 3;strokeWidth=2;rounded=0;exitX=-0.003;exitY=0.533;exitDx=0;exitDy=0;exitPerimeter=0;" parent="1" edge="1">
          <mxGeometry width="50" height="50" relative="1" as="geometry">
            <mxPoint x="17.690000000000055" y="273.96000000000004" as="sourcePoint" />
            <mxPoint x="780" y="271" as="targetPoint" />
          </mxGeometry>
        </mxCell>
        <mxCell id="pRyiRB4UjNgPb9oDDuR_-8" value="[if user&lt;br&gt;exists]" style="text;html=1;align=center;verticalAlign=middle;resizable=0;points=[];autosize=1;strokeColor=none;fillColor=none;" parent="1" vertex="1">
          <mxGeometry x="10" y="230" width="60" height="40" as="geometry" />
        </mxCell>
        <mxCell id="pRyiRB4UjNgPb9oDDuR_-9" value="[if user&lt;br&gt;&amp;nbsp;not exists]" style="text;html=1;align=center;verticalAlign=middle;resizable=0;points=[];autosize=1;strokeColor=none;fillColor=none;" parent="1" vertex="1">
          <mxGeometry y="280" width="80" height="40" as="geometry" />
        </mxCell>
        <mxCell id="pRyiRB4UjNgPb9oDDuR_-12" value="&lt;font style=&quot;font-size: 9px;&quot;&gt;User Login Unsucessful&lt;/font&gt;" style="html=1;verticalAlign=bottom;endArrow=open;dashed=1;endSize=8;edgeStyle=elbowEdgeStyle;elbow=vertical;curved=0;rounded=0;entryX=1;entryY=0.5;entryDx=0;entryDy=0;entryPerimeter=0;" parent="1" source="hJt7vq7obrux9Y3bkEPD-4" target="pRyiRB4UjNgPb9oDDuR_-9" edge="1">
          <mxGeometry x="0.0341" relative="1" as="geometry">
            <mxPoint x="730" y="299.5" as="sourcePoint" />
            <mxPoint x="360" y="300" as="targetPoint" />
            <Array as="points" />
            <mxPoint as="offset" />
          </mxGeometry>
        </mxCell>
        <mxCell id="pRyiRB4UjNgPb9oDDuR_-13" value="&lt;font style=&quot;font-size: 9px;&quot;&gt;User Login Sucess Response&lt;/font&gt;" style="html=1;verticalAlign=bottom;endArrow=open;dashed=1;endSize=8;edgeStyle=elbowEdgeStyle;elbow=horizontal;curved=0;rounded=0;" parent="1" source="hJt7vq7obrux9Y3bkEPD-4" target="hJt7vq7obrux9Y3bkEPD-5" edge="1">
          <mxGeometry x="-0.4489" relative="1" as="geometry">
            <mxPoint x="730" y="240" as="sourcePoint" />
            <mxPoint x="280" y="238" as="targetPoint" />
            <Array as="points">
              <mxPoint x="460" y="240" />
            </Array>
            <mxPoint as="offset" />
          </mxGeometry>
        </mxCell>
        <mxCell id="7JsROuQPUuiL9D5bBK-P-4" value="&lt;font style=&quot;font-size: 9px;&quot;&gt;Adding Food Menu&lt;br&gt;to the Database&lt;/font&gt;" style="html=1;verticalAlign=bottom;endArrow=block;edgeStyle=elbowEdgeStyle;elbow=vertical;curved=0;rounded=0;" parent="1" target="hJt7vq7obrux9Y3bkEPD-4" edge="1">
          <mxGeometry width="80" relative="1" as="geometry">
            <mxPoint x="470" y="410" as="sourcePoint" />
            <mxPoint x="550" y="410" as="targetPoint" />
          </mxGeometry>
        </mxCell>
        <mxCell id="7JsROuQPUuiL9D5bBK-P-5" value="&lt;font style=&quot;font-size: 9px;&quot;&gt;Food Data Menu Sucessfully&lt;/font&gt;" style="html=1;verticalAlign=bottom;endArrow=open;dashed=1;endSize=8;edgeStyle=elbowEdgeStyle;elbow=vertical;curved=0;rounded=0;" parent="1" target="hJt7vq7obrux9Y3bkEPD-2" edge="1">
          <mxGeometry x="-0.0175" relative="1" as="geometry">
            <mxPoint x="680" y="450" as="sourcePoint" />
            <mxPoint x="600" y="450" as="targetPoint" />
            <mxPoint as="offset" />
          </mxGeometry>
        </mxCell>
        <mxCell id="7JsROuQPUuiL9D5bBK-P-6" value="&lt;font style=&quot;font-size: 9px;&quot;&gt;&lt;font style=&quot;font-size: 9px;&quot;&gt;Requesting for editing&lt;/font&gt;&lt;br style=&quot;&quot;&gt;Food Menu&lt;br&gt;&lt;/font&gt;" style="html=1;verticalAlign=bottom;endArrow=block;edgeStyle=elbowEdgeStyle;elbow=vertical;curved=0;rounded=0;" parent="1" source="hJt7vq7obrux9Y3bkEPD-2" edge="1">
          <mxGeometry x="-0.4853" width="80" relative="1" as="geometry">
            <mxPoint x="280" y="520" as="sourcePoint" />
            <mxPoint x="470" y="520" as="targetPoint" />
            <mxPoint x="1" as="offset" />
          </mxGeometry>
        </mxCell>
        <mxCell id="7JsROuQPUuiL9D5bBK-P-7" value="&lt;font style=&quot;font-size: 9px;&quot;&gt;Updating Food Menu&lt;br&gt;in the Database&lt;/font&gt;" style="html=1;verticalAlign=bottom;endArrow=block;edgeStyle=elbowEdgeStyle;elbow=vertical;curved=0;rounded=0;" parent="1" edge="1">
          <mxGeometry width="80" relative="1" as="geometry">
            <mxPoint x="470" y="540" as="sourcePoint" />
            <mxPoint x="681" y="540" as="targetPoint" />
          </mxGeometry>
        </mxCell>
        <mxCell id="7JsROuQPUuiL9D5bBK-P-8" value="&lt;font style=&quot;font-size: 9px;&quot;&gt;Food Data Menu Sucessfully&lt;/font&gt;" style="html=1;verticalAlign=bottom;endArrow=open;dashed=1;endSize=8;edgeStyle=elbowEdgeStyle;elbow=vertical;curved=0;rounded=0;" parent="1" target="hJt7vq7obrux9Y3bkEPD-2" edge="1">
          <mxGeometry x="-0.0008" relative="1" as="geometry">
            <mxPoint x="680" y="580" as="sourcePoint" />
            <mxPoint x="280" y="580" as="targetPoint" />
            <mxPoint as="offset" />
          </mxGeometry>
        </mxCell>
        <mxCell id="7JsROuQPUuiL9D5bBK-P-9" value="&lt;font style=&quot;font-size: 9px;&quot;&gt;Requesting for deleting&lt;br&gt;Food Menu&lt;br&gt;&lt;/font&gt;" style="html=1;verticalAlign=bottom;endArrow=block;edgeStyle=elbowEdgeStyle;elbow=vertical;curved=0;rounded=0;" parent="1" source="hJt7vq7obrux9Y3bkEPD-2" edge="1">
          <mxGeometry x="-0.4853" width="80" relative="1" as="geometry">
            <mxPoint x="280" y="640" as="sourcePoint" />
            <mxPoint x="470" y="640" as="targetPoint" />
            <mxPoint x="1" as="offset" />
          </mxGeometry>
        </mxCell>
        <mxCell id="7JsROuQPUuiL9D5bBK-P-10" value="&lt;font style=&quot;font-size: 9px;&quot;&gt;Deleting Food Menu&lt;br&gt;from the Database&lt;/font&gt;" style="html=1;verticalAlign=bottom;endArrow=block;edgeStyle=elbowEdgeStyle;elbow=vertical;curved=0;rounded=0;" parent="1" edge="1">
          <mxGeometry width="80" relative="1" as="geometry">
            <mxPoint x="470" y="660" as="sourcePoint" />
            <mxPoint x="681" y="660" as="targetPoint" />
          </mxGeometry>
        </mxCell>
        <mxCell id="7JsROuQPUuiL9D5bBK-P-11" value="&lt;font style=&quot;font-size: 9px;&quot;&gt;Food Menu Deleted Sucessfully&lt;/font&gt;" style="html=1;verticalAlign=bottom;endArrow=open;dashed=1;endSize=8;edgeStyle=elbowEdgeStyle;elbow=vertical;curved=0;rounded=0;" parent="1" target="hJt7vq7obrux9Y3bkEPD-2" edge="1">
          <mxGeometry x="-0.0175" relative="1" as="geometry">
            <mxPoint x="680" y="700" as="sourcePoint" />
            <mxPoint x="280" y="700" as="targetPoint" />
            <mxPoint as="offset" />
          </mxGeometry>
        </mxCell>
        <mxCell id="7JsROuQPUuiL9D5bBK-P-12" value="&lt;font style=&quot;font-size: 9px;&quot;&gt;Requesting for adding Food Item&lt;br&gt;in the Particular Menu&lt;br&gt;&lt;/font&gt;" style="html=1;verticalAlign=bottom;endArrow=block;edgeStyle=elbowEdgeStyle;elbow=vertical;curved=0;rounded=0;" parent="1" source="hJt7vq7obrux9Y3bkEPD-2" edge="1">
          <mxGeometry x="-0.4853" width="80" relative="1" as="geometry">
            <mxPoint x="280" y="780" as="sourcePoint" />
            <mxPoint x="470" y="780" as="targetPoint" />
            <mxPoint x="1" as="offset" />
          </mxGeometry>
        </mxCell>
        <mxCell id="7JsROuQPUuiL9D5bBK-P-13" value="&lt;font style=&quot;font-size: 9px;&quot;&gt;Adding Food Item&lt;br&gt;to the Database&lt;/font&gt;" style="html=1;verticalAlign=bottom;endArrow=block;edgeStyle=elbowEdgeStyle;elbow=vertical;curved=0;rounded=0;" parent="1" edge="1">
          <mxGeometry width="80" relative="1" as="geometry">
            <mxPoint x="470" y="800" as="sourcePoint" />
            <mxPoint x="681" y="800" as="targetPoint" />
          </mxGeometry>
        </mxCell>
        <mxCell id="7JsROuQPUuiL9D5bBK-P-14" value="&lt;font style=&quot;font-size: 9px;&quot;&gt;Food Item Added Sucessfully&lt;/font&gt;" style="html=1;verticalAlign=bottom;endArrow=open;dashed=1;endSize=8;edgeStyle=elbowEdgeStyle;elbow=vertical;curved=0;rounded=0;" parent="1" target="hJt7vq7obrux9Y3bkEPD-2" edge="1">
          <mxGeometry x="-0.0008" relative="1" as="geometry">
            <mxPoint x="680" y="840" as="sourcePoint" />
            <mxPoint x="280" y="840" as="targetPoint" />
            <mxPoint as="offset" />
          </mxGeometry>
        </mxCell>
        <mxCell id="7JsROuQPUuiL9D5bBK-P-15" value="&lt;font style=&quot;font-size: 9px;&quot;&gt;Requesting for adding&lt;br&gt;Food Menu&lt;br&gt;&lt;/font&gt;" style="html=1;verticalAlign=bottom;endArrow=block;edgeStyle=elbowEdgeStyle;elbow=vertical;curved=0;rounded=0;exitX=0.6;exitY=0.451;exitDx=0;exitDy=0;exitPerimeter=0;" parent="1" edge="1">
          <mxGeometry x="-0.493" width="80" relative="1" as="geometry">
            <mxPoint x="82" y="387" as="sourcePoint" />
            <mxPoint x="470" y="387" as="targetPoint" />
            <mxPoint as="offset" />
          </mxGeometry>
        </mxCell>
        <mxCell id="7JsROuQPUuiL9D5bBK-P-16" value="&lt;font style=&quot;font-size: 9px;&quot;&gt;&lt;font style=&quot;font-size: 9px;&quot;&gt;Requesting for editing&amp;nbsp;&lt;/font&gt;Food Item&lt;br&gt;in the Particular Menu&lt;br&gt;&lt;/font&gt;" style="html=1;verticalAlign=bottom;endArrow=block;edgeStyle=elbowEdgeStyle;elbow=vertical;curved=0;rounded=0;" parent="1" edge="1">
          <mxGeometry x="-0.4853" width="80" relative="1" as="geometry">
            <mxPoint x="80" y="900" as="sourcePoint" />
            <mxPoint x="470" y="900" as="targetPoint" />
            <mxPoint x="1" as="offset" />
          </mxGeometry>
        </mxCell>
        <mxCell id="7JsROuQPUuiL9D5bBK-P-17" value="&lt;font style=&quot;font-size: 9px;&quot;&gt;Updating Food Item&lt;br&gt;in the Database&lt;/font&gt;" style="html=1;verticalAlign=bottom;endArrow=block;edgeStyle=elbowEdgeStyle;elbow=vertical;curved=0;rounded=0;" parent="1" edge="1">
          <mxGeometry width="80" relative="1" as="geometry">
            <mxPoint x="470" y="920" as="sourcePoint" />
            <mxPoint x="681" y="920" as="targetPoint" />
          </mxGeometry>
        </mxCell>
        <mxCell id="7JsROuQPUuiL9D5bBK-P-18" value="&lt;font style=&quot;font-size: 9px;&quot;&gt;Food Item Menu Sucessfully&lt;/font&gt;" style="html=1;verticalAlign=bottom;endArrow=open;dashed=1;endSize=8;edgeStyle=elbowEdgeStyle;elbow=vertical;curved=0;rounded=0;" parent="1" edge="1">
          <mxGeometry x="-0.0008" relative="1" as="geometry">
            <mxPoint x="680" y="960" as="sourcePoint" />
            <mxPoint x="80" y="960" as="targetPoint" />
            <mxPoint as="offset" />
          </mxGeometry>
        </mxCell>
        <mxCell id="7JsROuQPUuiL9D5bBK-P-19" value="&lt;font style=&quot;font-size: 9px;&quot;&gt;Requesting for deleting Food Item&lt;br&gt;in the Particular Menu&lt;br&gt;&lt;/font&gt;" style="html=1;verticalAlign=bottom;endArrow=block;edgeStyle=elbowEdgeStyle;elbow=vertical;curved=0;rounded=0;" parent="1" edge="1">
          <mxGeometry x="-0.4853" width="80" relative="1" as="geometry">
            <mxPoint x="80" y="1020" as="sourcePoint" />
            <mxPoint x="470" y="1020" as="targetPoint" />
            <mxPoint x="1" as="offset" />
          </mxGeometry>
        </mxCell>
        <mxCell id="7JsROuQPUuiL9D5bBK-P-20" value="&lt;font style=&quot;font-size: 9px;&quot;&gt;Deleting Food Item&lt;br&gt;from the Database&lt;/font&gt;" style="html=1;verticalAlign=bottom;endArrow=block;edgeStyle=elbowEdgeStyle;elbow=vertical;curved=0;rounded=0;" parent="1" edge="1">
          <mxGeometry width="80" relative="1" as="geometry">
            <mxPoint x="470" y="1040" as="sourcePoint" />
            <mxPoint x="681" y="1040" as="targetPoint" />
          </mxGeometry>
        </mxCell>
        <mxCell id="7JsROuQPUuiL9D5bBK-P-21" value="&lt;font style=&quot;font-size: 9px;&quot;&gt;Food Item Deleted Sucessfully&lt;/font&gt;" style="html=1;verticalAlign=bottom;endArrow=open;dashed=1;endSize=8;edgeStyle=elbowEdgeStyle;elbow=vertical;curved=0;rounded=0;" parent="1" edge="1">
          <mxGeometry x="-0.0175" relative="1" as="geometry">
            <mxPoint x="680" y="1080" as="sourcePoint" />
            <mxPoint x="80" y="1080" as="targetPoint" />
            <mxPoint as="offset" />
          </mxGeometry>
        </mxCell>
        <mxCell id="7JsROuQPUuiL9D5bBK-P-23" value="" style="html=1;points=[];perimeter=orthogonalPerimeter;outlineConnect=0;targetShapes=umlLifeline;portConstraint=eastwest;newEdgeStyle={&quot;edgeStyle&quot;:&quot;elbowEdgeStyle&quot;,&quot;elbow&quot;:&quot;vertical&quot;,&quot;curved&quot;:0,&quot;rounded&quot;:0};" parent="1" vertex="1">
          <mxGeometry x="276" y="138" width="10" height="972" as="geometry" />
        </mxCell>
        <mxCell id="7JsROuQPUuiL9D5bBK-P-24" value="" style="html=1;points=[];perimeter=orthogonalPerimeter;outlineConnect=0;targetShapes=umlLifeline;portConstraint=eastwest;newEdgeStyle={&quot;edgeStyle&quot;:&quot;elbowEdgeStyle&quot;,&quot;elbow&quot;:&quot;vertical&quot;,&quot;curved&quot;:0,&quot;rounded&quot;:0};" parent="1" vertex="1">
          <mxGeometry x="466" y="138" width="10" height="972" as="geometry" />
        </mxCell>
        <mxCell id="7JsROuQPUuiL9D5bBK-P-25" value="" style="html=1;points=[];perimeter=orthogonalPerimeter;outlineConnect=0;targetShapes=umlLifeline;portConstraint=eastwest;newEdgeStyle={&quot;edgeStyle&quot;:&quot;elbowEdgeStyle&quot;,&quot;elbow&quot;:&quot;vertical&quot;,&quot;curved&quot;:0,&quot;rounded&quot;:0};" parent="1" vertex="1">
          <mxGeometry x="676" y="138" width="10" height="972" as="geometry" />
        </mxCell>
        <mxCell id="9BdN7VWhJpiNpTgMLVnY-1" value="[if user&lt;br&gt;exists &lt;br&gt;and have&lt;br&gt;Admin role]" style="text;html=1;align=center;verticalAlign=middle;resizable=0;points=[];autosize=1;strokeColor=none;fillColor=none;" parent="1" vertex="1">
          <mxGeometry y="370" width="80" height="70" as="geometry" />
        </mxCell>
      </root>
    </mxGraphModel>
  </diagram>
  <diagram name="Customer_Sequential_Diagram " id="CLWYQ_UHbdmSFxVmZqf4">
    <mxGraphModel dx="1434" dy="843" grid="1" gridSize="10" guides="1" tooltips="1" connect="1" arrows="1" fold="1" page="1" pageScale="1" pageWidth="827" pageHeight="1169" math="0" shadow="0">
      <root>
        <mxCell id="VI7TkOM7B4EAxyqQ2cMc-0" />
        <mxCell id="VI7TkOM7B4EAxyqQ2cMc-1" parent="VI7TkOM7B4EAxyqQ2cMc-0" />
        <mxCell id="VI7TkOM7B4EAxyqQ2cMc-2" value="" style="shape=umlLifeline;perimeter=lifelinePerimeter;whiteSpace=wrap;html=1;container=1;dropTarget=0;collapsible=0;recursiveResize=0;outlineConnect=0;portConstraint=eastwest;newEdgeStyle={&quot;edgeStyle&quot;:&quot;elbowEdgeStyle&quot;,&quot;elbow&quot;:&quot;vertical&quot;,&quot;curved&quot;:0,&quot;rounded&quot;:0};participant=umlActor;" parent="VI7TkOM7B4EAxyqQ2cMc-1" vertex="1">
          <mxGeometry x="70" y="80" width="20" height="720" as="geometry" />
        </mxCell>
        <mxCell id="CTHUqUyVhN0i9BWs9Sck-9" value="" style="html=1;points=[];perimeter=orthogonalPerimeter;outlineConnect=0;targetShapes=umlLifeline;portConstraint=eastwest;newEdgeStyle={&quot;edgeStyle&quot;:&quot;elbowEdgeStyle&quot;,&quot;elbow&quot;:&quot;vertical&quot;,&quot;curved&quot;:0,&quot;rounded&quot;:0};" parent="VI7TkOM7B4EAxyqQ2cMc-2" vertex="1">
          <mxGeometry x="5" y="50" width="10" height="630" as="geometry" />
        </mxCell>
        <mxCell id="VI7TkOM7B4EAxyqQ2cMc-3" value="Database" style="shape=umlLifeline;perimeter=lifelinePerimeter;whiteSpace=wrap;html=1;container=1;dropTarget=0;collapsible=0;recursiveResize=0;outlineConnect=0;portConstraint=eastwest;newEdgeStyle={&quot;edgeStyle&quot;:&quot;elbowEdgeStyle&quot;,&quot;elbow&quot;:&quot;vertical&quot;,&quot;curved&quot;:0,&quot;rounded&quot;:0};" parent="VI7TkOM7B4EAxyqQ2cMc-1" vertex="1">
          <mxGeometry x="681" y="80" width="100" height="720" as="geometry" />
        </mxCell>
        <mxCell id="VI7TkOM7B4EAxyqQ2cMc-4" value="User" style="shape=umlLifeline;perimeter=lifelinePerimeter;whiteSpace=wrap;html=1;container=1;dropTarget=0;collapsible=0;recursiveResize=0;outlineConnect=0;portConstraint=eastwest;newEdgeStyle={&quot;edgeStyle&quot;:&quot;elbowEdgeStyle&quot;,&quot;elbow&quot;:&quot;vertical&quot;,&quot;curved&quot;:0,&quot;rounded&quot;:0};" parent="VI7TkOM7B4EAxyqQ2cMc-1" vertex="1">
          <mxGeometry x="190" y="80" width="100" height="720" as="geometry" />
        </mxCell>
        <mxCell id="VI7TkOM7B4EAxyqQ2cMc-5" value="Food" style="shape=umlLifeline;perimeter=lifelinePerimeter;whiteSpace=wrap;html=1;container=1;dropTarget=0;collapsible=0;recursiveResize=0;outlineConnect=0;portConstraint=eastwest;newEdgeStyle={&quot;edgeStyle&quot;:&quot;elbowEdgeStyle&quot;,&quot;elbow&quot;:&quot;vertical&quot;,&quot;curved&quot;:0,&quot;rounded&quot;:0};" parent="VI7TkOM7B4EAxyqQ2cMc-1" vertex="1">
          <mxGeometry x="360" y="80" width="100" height="720" as="geometry" />
        </mxCell>
        <mxCell id="VI7TkOM7B4EAxyqQ2cMc-6" value="Order" style="shape=umlLifeline;perimeter=lifelinePerimeter;whiteSpace=wrap;html=1;container=1;dropTarget=0;collapsible=0;recursiveResize=0;outlineConnect=0;portConstraint=eastwest;newEdgeStyle={&quot;edgeStyle&quot;:&quot;elbowEdgeStyle&quot;,&quot;elbow&quot;:&quot;vertical&quot;,&quot;curved&quot;:0,&quot;rounded&quot;:0};" parent="VI7TkOM7B4EAxyqQ2cMc-1" vertex="1">
          <mxGeometry x="530" y="80" width="100" height="720" as="geometry" />
        </mxCell>
        <mxCell id="VI7TkOM7B4EAxyqQ2cMc-7" value="" style="endArrow=classic;html=1;rounded=0;" parent="VI7TkOM7B4EAxyqQ2cMc-1" source="VI7TkOM7B4EAxyqQ2cMc-2" target="VI7TkOM7B4EAxyqQ2cMc-4" edge="1">
          <mxGeometry width="50" height="50" relative="1" as="geometry">
            <mxPoint x="59.5" y="170" as="sourcePoint" />
            <mxPoint x="179.5" y="170" as="targetPoint" />
            <Array as="points">
              <mxPoint x="160" y="170" />
            </Array>
          </mxGeometry>
        </mxCell>
        <mxCell id="VI7TkOM7B4EAxyqQ2cMc-8" value="" style="endArrow=classic;html=1;rounded=0;" parent="VI7TkOM7B4EAxyqQ2cMc-1" edge="1">
          <mxGeometry width="50" height="50" relative="1" as="geometry">
            <mxPoint x="239.5" y="190" as="sourcePoint" />
            <mxPoint x="730.5" y="190" as="targetPoint" />
          </mxGeometry>
        </mxCell>
        <mxCell id="VI7TkOM7B4EAxyqQ2cMc-9" value="&lt;font style=&quot;font-size: 9px;&quot;&gt;User Login&lt;/font&gt;" style="text;html=1;align=center;verticalAlign=middle;resizable=0;points=[];autosize=1;strokeColor=none;fillColor=none;" parent="VI7TkOM7B4EAxyqQ2cMc-1" vertex="1">
          <mxGeometry x="125" y="138" width="70" height="30" as="geometry" />
        </mxCell>
        <mxCell id="VI7TkOM7B4EAxyqQ2cMc-10" value="&lt;font style=&quot;font-size: 9px;&quot;&gt;Checking for the &lt;br&gt;User Credentials&lt;/font&gt;" style="text;html=1;align=center;verticalAlign=middle;resizable=0;points=[];autosize=1;strokeColor=none;fillColor=none;" parent="VI7TkOM7B4EAxyqQ2cMc-1" vertex="1">
          <mxGeometry x="455" y="153" width="90" height="40" as="geometry" />
        </mxCell>
        <mxCell id="VI7TkOM7B4EAxyqQ2cMc-11" value="Alternative" style="shape=umlFrame;whiteSpace=wrap;html=1;pointerEvents=0;width=80;height=20;" parent="VI7TkOM7B4EAxyqQ2cMc-1" vertex="1">
          <mxGeometry x="10" y="210" width="770" height="120" as="geometry" />
        </mxCell>
        <mxCell id="VI7TkOM7B4EAxyqQ2cMc-12" value="" style="endArrow=none;dashed=1;html=1;dashPattern=1 3;strokeWidth=2;rounded=0;entryX=1;entryY=0.508;entryDx=0;entryDy=0;entryPerimeter=0;" parent="VI7TkOM7B4EAxyqQ2cMc-1" edge="1">
          <mxGeometry width="50" height="50" relative="1" as="geometry">
            <mxPoint x="20" y="269.5" as="sourcePoint" />
            <mxPoint x="780" y="270.96000000000004" as="targetPoint" />
          </mxGeometry>
        </mxCell>
        <mxCell id="VI7TkOM7B4EAxyqQ2cMc-13" value="[if user&lt;br&gt;exists]" style="text;html=1;align=center;verticalAlign=middle;resizable=0;points=[];autosize=1;strokeColor=none;fillColor=none;" parent="VI7TkOM7B4EAxyqQ2cMc-1" vertex="1">
          <mxGeometry x="10" y="230" width="60" height="40" as="geometry" />
        </mxCell>
        <mxCell id="VI7TkOM7B4EAxyqQ2cMc-14" value="[if user&lt;br&gt;&amp;nbsp;not exists]" style="text;html=1;align=center;verticalAlign=middle;resizable=0;points=[];autosize=1;strokeColor=none;fillColor=none;" parent="VI7TkOM7B4EAxyqQ2cMc-1" vertex="1">
          <mxGeometry y="280" width="80" height="40" as="geometry" />
        </mxCell>
        <mxCell id="VI7TkOM7B4EAxyqQ2cMc-15" value="&lt;font style=&quot;font-size: 9px;&quot;&gt;User Credentials&amp;nbsp;not Available&lt;/font&gt;" style="html=1;verticalAlign=bottom;endArrow=open;dashed=1;endSize=8;edgeStyle=elbowEdgeStyle;elbow=vertical;curved=0;rounded=0;entryX=1;entryY=0.5;entryDx=0;entryDy=0;entryPerimeter=0;" parent="VI7TkOM7B4EAxyqQ2cMc-1" target="VI7TkOM7B4EAxyqQ2cMc-14" edge="1">
          <mxGeometry x="0.2621" relative="1" as="geometry">
            <mxPoint x="730" y="299.5" as="sourcePoint" />
            <mxPoint x="360" y="300" as="targetPoint" />
            <Array as="points">
              <mxPoint x="1010" y="300" />
            </Array>
            <mxPoint as="offset" />
          </mxGeometry>
        </mxCell>
        <mxCell id="VI7TkOM7B4EAxyqQ2cMc-16" value="&lt;font style=&quot;font-size: 9px;&quot;&gt;User Credentials&amp;nbsp; Available&lt;/font&gt;" style="html=1;verticalAlign=bottom;endArrow=open;dashed=1;endSize=8;edgeStyle=elbowEdgeStyle;elbow=horizontal;curved=0;rounded=0;" parent="VI7TkOM7B4EAxyqQ2cMc-1" target="VI7TkOM7B4EAxyqQ2cMc-4" edge="1">
          <mxGeometry relative="1" as="geometry">
            <mxPoint x="730" y="240" as="sourcePoint" />
            <mxPoint x="280" y="238" as="targetPoint" />
            <Array as="points">
              <mxPoint x="460" y="240" />
            </Array>
          </mxGeometry>
        </mxCell>
        <mxCell id="CTHUqUyVhN0i9BWs9Sck-0" value="&lt;font style=&quot;font-size: 9px;&quot;&gt;Requesting for the &lt;br&gt;Food Menu to View&lt;/font&gt;" style="html=1;verticalAlign=bottom;endArrow=block;edgeStyle=elbowEdgeStyle;elbow=vertical;curved=0;rounded=0;" parent="VI7TkOM7B4EAxyqQ2cMc-1" target="VI7TkOM7B4EAxyqQ2cMc-5" edge="1">
          <mxGeometry x="0.3961" width="80" relative="1" as="geometry">
            <mxPoint x="80" y="420" as="sourcePoint" />
            <mxPoint x="160" y="420" as="targetPoint" />
            <mxPoint as="offset" />
          </mxGeometry>
        </mxCell>
        <mxCell id="CTHUqUyVhN0i9BWs9Sck-1" value="&lt;font style=&quot;font-size: 9px;&quot;&gt;Requesting for Food Menu&lt;/font&gt;" style="html=1;verticalAlign=bottom;endArrow=block;edgeStyle=elbowEdgeStyle;elbow=vertical;curved=0;rounded=0;" parent="VI7TkOM7B4EAxyqQ2cMc-1" target="VI7TkOM7B4EAxyqQ2cMc-3" edge="1">
          <mxGeometry x="-0.4384" width="80" relative="1" as="geometry">
            <mxPoint x="410" y="440" as="sourcePoint" />
            <mxPoint x="490" y="440" as="targetPoint" />
            <mxPoint as="offset" />
          </mxGeometry>
        </mxCell>
        <mxCell id="CTHUqUyVhN0i9BWs9Sck-2" value="&lt;font style=&quot;font-size: 9px;&quot;&gt;Sucess Response with Food Menu&lt;/font&gt;" style="html=1;verticalAlign=bottom;endArrow=open;dashed=1;endSize=8;edgeStyle=elbowEdgeStyle;elbow=vertical;curved=0;rounded=0;" parent="VI7TkOM7B4EAxyqQ2cMc-1" edge="1">
          <mxGeometry x="0.7525" relative="1" as="geometry">
            <mxPoint x="730" y="480" as="sourcePoint" />
            <mxPoint x="79.5" y="480" as="targetPoint" />
            <mxPoint as="offset" />
          </mxGeometry>
        </mxCell>
        <mxCell id="CTHUqUyVhN0i9BWs9Sck-3" value="&lt;font style=&quot;font-size: 9px;&quot;&gt;Requesting for&lt;br&gt;Placing Order&lt;br&gt;&lt;/font&gt;" style="html=1;verticalAlign=bottom;endArrow=block;edgeStyle=elbowEdgeStyle;elbow=vertical;curved=0;rounded=0;" parent="VI7TkOM7B4EAxyqQ2cMc-1" target="VI7TkOM7B4EAxyqQ2cMc-6" edge="1">
          <mxGeometry x="0.001" width="80" relative="1" as="geometry">
            <mxPoint x="80" y="540" as="sourcePoint" />
            <mxPoint x="410" y="540" as="targetPoint" />
            <mxPoint as="offset" />
          </mxGeometry>
        </mxCell>
        <mxCell id="CTHUqUyVhN0i9BWs9Sck-4" value="&lt;font style=&quot;font-size: 9px;&quot;&gt;Placed order Data stored&lt;br&gt;&amp;nbsp;in database&lt;/font&gt;" style="html=1;verticalAlign=bottom;endArrow=block;edgeStyle=elbowEdgeStyle;elbow=vertical;curved=0;rounded=0;" parent="VI7TkOM7B4EAxyqQ2cMc-1" source="VI7TkOM7B4EAxyqQ2cMc-6" edge="1">
          <mxGeometry x="-0.0693" width="80" relative="1" as="geometry">
            <mxPoint x="410" y="570" as="sourcePoint" />
            <mxPoint x="731" y="570" as="targetPoint" />
            <mxPoint as="offset" />
          </mxGeometry>
        </mxCell>
        <mxCell id="CTHUqUyVhN0i9BWs9Sck-5" value="&lt;font style=&quot;font-size: 9px;&quot;&gt;Order Placed&lt;/font&gt;" style="html=1;verticalAlign=bottom;endArrow=open;dashed=1;endSize=8;edgeStyle=elbowEdgeStyle;elbow=vertical;curved=0;rounded=0;" parent="VI7TkOM7B4EAxyqQ2cMc-1" edge="1">
          <mxGeometry x="0.7525" relative="1" as="geometry">
            <mxPoint x="730" y="600" as="sourcePoint" />
            <mxPoint x="79.5" y="600" as="targetPoint" />
            <mxPoint as="offset" />
          </mxGeometry>
        </mxCell>
        <mxCell id="CTHUqUyVhN0i9BWs9Sck-6" value="&lt;font style=&quot;font-size: 9px;&quot;&gt;Requesting for&lt;br&gt;Cancelling Order&lt;br&gt;&lt;/font&gt;" style="html=1;verticalAlign=bottom;endArrow=block;edgeStyle=elbowEdgeStyle;elbow=vertical;curved=0;rounded=0;" parent="VI7TkOM7B4EAxyqQ2cMc-1" edge="1">
          <mxGeometry x="0.001" width="80" relative="1" as="geometry">
            <mxPoint x="80" y="670" as="sourcePoint" />
            <mxPoint x="580" y="670" as="targetPoint" />
            <mxPoint as="offset" />
          </mxGeometry>
        </mxCell>
        <mxCell id="CTHUqUyVhN0i9BWs9Sck-7" value="&lt;font style=&quot;font-size: 9px;&quot;&gt;Order Cancelled Data stored&lt;br style=&quot;&quot;&gt;&amp;nbsp;in database&lt;/font&gt;" style="html=1;verticalAlign=bottom;endArrow=block;edgeStyle=elbowEdgeStyle;elbow=vertical;curved=0;rounded=0;" parent="VI7TkOM7B4EAxyqQ2cMc-1" edge="1">
          <mxGeometry x="-0.0728" width="80" relative="1" as="geometry">
            <mxPoint x="580" y="700" as="sourcePoint" />
            <mxPoint x="731" y="700" as="targetPoint" />
            <mxPoint as="offset" />
          </mxGeometry>
        </mxCell>
        <mxCell id="CTHUqUyVhN0i9BWs9Sck-8" value="&lt;font style=&quot;font-size: 9px;&quot;&gt;Order Cancelled&lt;/font&gt;" style="html=1;verticalAlign=bottom;endArrow=open;dashed=1;endSize=8;edgeStyle=elbowEdgeStyle;elbow=vertical;curved=0;rounded=0;" parent="VI7TkOM7B4EAxyqQ2cMc-1" edge="1">
          <mxGeometry x="0.7525" relative="1" as="geometry">
            <mxPoint x="730" y="730" as="sourcePoint" />
            <mxPoint x="79.5" y="730" as="targetPoint" />
            <mxPoint as="offset" />
          </mxGeometry>
        </mxCell>
        <mxCell id="CTHUqUyVhN0i9BWs9Sck-10" value="" style="html=1;points=[];perimeter=orthogonalPerimeter;outlineConnect=0;targetShapes=umlLifeline;portConstraint=eastwest;newEdgeStyle={&quot;edgeStyle&quot;:&quot;elbowEdgeStyle&quot;,&quot;elbow&quot;:&quot;vertical&quot;,&quot;curved&quot;:0,&quot;rounded&quot;:0};" parent="VI7TkOM7B4EAxyqQ2cMc-1" vertex="1">
          <mxGeometry x="235" y="130" width="10" height="630" as="geometry" />
        </mxCell>
        <mxCell id="CTHUqUyVhN0i9BWs9Sck-11" value="" style="html=1;points=[];perimeter=orthogonalPerimeter;outlineConnect=0;targetShapes=umlLifeline;portConstraint=eastwest;newEdgeStyle={&quot;edgeStyle&quot;:&quot;elbowEdgeStyle&quot;,&quot;elbow&quot;:&quot;vertical&quot;,&quot;curved&quot;:0,&quot;rounded&quot;:0};" parent="VI7TkOM7B4EAxyqQ2cMc-1" vertex="1">
          <mxGeometry x="405" y="130" width="10" height="630" as="geometry" />
        </mxCell>
        <mxCell id="CTHUqUyVhN0i9BWs9Sck-12" value="" style="html=1;points=[];perimeter=orthogonalPerimeter;outlineConnect=0;targetShapes=umlLifeline;portConstraint=eastwest;newEdgeStyle={&quot;edgeStyle&quot;:&quot;elbowEdgeStyle&quot;,&quot;elbow&quot;:&quot;vertical&quot;,&quot;curved&quot;:0,&quot;rounded&quot;:0};" parent="VI7TkOM7B4EAxyqQ2cMc-1" vertex="1">
          <mxGeometry x="575" y="130" width="10" height="630" as="geometry" />
        </mxCell>
        <mxCell id="CTHUqUyVhN0i9BWs9Sck-13" value="" style="html=1;points=[];perimeter=orthogonalPerimeter;outlineConnect=0;targetShapes=umlLifeline;portConstraint=eastwest;newEdgeStyle={&quot;edgeStyle&quot;:&quot;elbowEdgeStyle&quot;,&quot;elbow&quot;:&quot;vertical&quot;,&quot;curved&quot;:0,&quot;rounded&quot;:0};" parent="VI7TkOM7B4EAxyqQ2cMc-1" vertex="1">
          <mxGeometry x="725" y="130" width="10" height="630" as="geometry" />
        </mxCell>
      </root>
    </mxGraphModel>
  </diagram>
  <diagram name="Staff_Sequential_Diagram " id="wim_LIZixFIMIpDL56kB">
    <mxGraphModel dx="1434" dy="843" grid="1" gridSize="10" guides="1" tooltips="1" connect="1" arrows="1" fold="1" page="1" pageScale="1" pageWidth="827" pageHeight="1169" math="0" shadow="0">
      <root>
        <mxCell id="JYAi2SwusRmGIGOV8FEn-0" />
        <mxCell id="JYAi2SwusRmGIGOV8FEn-1" parent="JYAi2SwusRmGIGOV8FEn-0" />
        <mxCell id="JYAi2SwusRmGIGOV8FEn-2" value="" style="shape=umlLifeline;perimeter=lifelinePerimeter;whiteSpace=wrap;html=1;container=1;dropTarget=0;collapsible=0;recursiveResize=0;outlineConnect=0;portConstraint=eastwest;newEdgeStyle={&quot;edgeStyle&quot;:&quot;elbowEdgeStyle&quot;,&quot;elbow&quot;:&quot;vertical&quot;,&quot;curved&quot;:0,&quot;rounded&quot;:0};participant=umlActor;" parent="JYAi2SwusRmGIGOV8FEn-1" vertex="1">
          <mxGeometry x="70" y="80" width="20" height="810" as="geometry" />
        </mxCell>
        <mxCell id="JYAi2SwusRmGIGOV8FEn-4" value="Database" style="shape=umlLifeline;perimeter=lifelinePerimeter;whiteSpace=wrap;html=1;container=1;dropTarget=0;collapsible=0;recursiveResize=0;outlineConnect=0;portConstraint=eastwest;newEdgeStyle={&quot;edgeStyle&quot;:&quot;elbowEdgeStyle&quot;,&quot;elbow&quot;:&quot;vertical&quot;,&quot;curved&quot;:0,&quot;rounded&quot;:0};" parent="JYAi2SwusRmGIGOV8FEn-1" vertex="1">
          <mxGeometry x="631" y="80" width="100" height="800" as="geometry" />
        </mxCell>
        <mxCell id="JYAi2SwusRmGIGOV8FEn-5" value="User" style="shape=umlLifeline;perimeter=lifelinePerimeter;whiteSpace=wrap;html=1;container=1;dropTarget=0;collapsible=0;recursiveResize=0;outlineConnect=0;portConstraint=eastwest;newEdgeStyle={&quot;edgeStyle&quot;:&quot;elbowEdgeStyle&quot;,&quot;elbow&quot;:&quot;vertical&quot;,&quot;curved&quot;:0,&quot;rounded&quot;:0};" parent="JYAi2SwusRmGIGOV8FEn-1" vertex="1">
          <mxGeometry x="230" y="80" width="100" height="800" as="geometry" />
        </mxCell>
        <mxCell id="JYAi2SwusRmGIGOV8FEn-6" value="Order" style="shape=umlLifeline;perimeter=lifelinePerimeter;whiteSpace=wrap;html=1;container=1;dropTarget=0;collapsible=0;recursiveResize=0;outlineConnect=0;portConstraint=eastwest;newEdgeStyle={&quot;edgeStyle&quot;:&quot;elbowEdgeStyle&quot;,&quot;elbow&quot;:&quot;vertical&quot;,&quot;curved&quot;:0,&quot;rounded&quot;:0};" parent="JYAi2SwusRmGIGOV8FEn-1" vertex="1">
          <mxGeometry x="420" y="80" width="100" height="800" as="geometry" />
        </mxCell>
        <mxCell id="JYAi2SwusRmGIGOV8FEn-7" value="" style="endArrow=classic;html=1;rounded=0;" parent="JYAi2SwusRmGIGOV8FEn-1" source="6E7UQbyNTA_oAe2Zq3xk-0" target="JYAi2SwusRmGIGOV8FEn-5" edge="1">
          <mxGeometry width="50" height="50" relative="1" as="geometry">
            <mxPoint x="59.5" y="170" as="sourcePoint" />
            <mxPoint x="179.5" y="170" as="targetPoint" />
            <Array as="points">
              <mxPoint x="160" y="170" />
            </Array>
          </mxGeometry>
        </mxCell>
        <mxCell id="JYAi2SwusRmGIGOV8FEn-8" value="" style="endArrow=classic;html=1;rounded=0;" parent="JYAi2SwusRmGIGOV8FEn-1" source="JYAi2SwusRmGIGOV8FEn-5" edge="1">
          <mxGeometry width="50" height="50" relative="1" as="geometry">
            <mxPoint x="239.5" y="190" as="sourcePoint" />
            <mxPoint x="680" y="190" as="targetPoint" />
          </mxGeometry>
        </mxCell>
        <mxCell id="JYAi2SwusRmGIGOV8FEn-9" value="&lt;font style=&quot;font-size: 9px;&quot;&gt;User Login&lt;/font&gt;" style="text;html=1;align=center;verticalAlign=middle;resizable=0;points=[];autosize=1;strokeColor=none;fillColor=none;" parent="JYAi2SwusRmGIGOV8FEn-1" vertex="1">
          <mxGeometry x="125" y="138" width="70" height="30" as="geometry" />
        </mxCell>
        <mxCell id="JYAi2SwusRmGIGOV8FEn-10" value="&lt;font style=&quot;font-size: 9px;&quot;&gt;Checking for the &lt;br&gt;User Credentials&lt;/font&gt;" style="text;html=1;align=center;verticalAlign=middle;resizable=0;points=[];autosize=1;strokeColor=none;fillColor=none;" parent="JYAi2SwusRmGIGOV8FEn-1" vertex="1">
          <mxGeometry x="525" y="153" width="90" height="40" as="geometry" />
        </mxCell>
        <mxCell id="JYAi2SwusRmGIGOV8FEn-11" value="Alternative" style="shape=umlFrame;whiteSpace=wrap;html=1;pointerEvents=0;width=80;height=20;" parent="JYAi2SwusRmGIGOV8FEn-1" vertex="1">
          <mxGeometry x="10" y="210" width="770" height="120" as="geometry" />
        </mxCell>
        <mxCell id="JYAi2SwusRmGIGOV8FEn-12" value="" style="endArrow=none;dashed=1;html=1;dashPattern=1 3;strokeWidth=2;rounded=0;exitX=-0.003;exitY=0.533;exitDx=0;exitDy=0;exitPerimeter=0;" parent="JYAi2SwusRmGIGOV8FEn-1" edge="1">
          <mxGeometry width="50" height="50" relative="1" as="geometry">
            <mxPoint x="17.690000000000055" y="273.96000000000004" as="sourcePoint" />
            <mxPoint x="780" y="271" as="targetPoint" />
          </mxGeometry>
        </mxCell>
        <mxCell id="JYAi2SwusRmGIGOV8FEn-13" value="[if user&lt;br&gt;exists]" style="text;html=1;align=center;verticalAlign=middle;resizable=0;points=[];autosize=1;strokeColor=none;fillColor=none;" parent="JYAi2SwusRmGIGOV8FEn-1" vertex="1">
          <mxGeometry x="10" y="230" width="60" height="40" as="geometry" />
        </mxCell>
        <mxCell id="JYAi2SwusRmGIGOV8FEn-14" value="[if user&lt;br&gt;&amp;nbsp;not exists]" style="text;html=1;align=center;verticalAlign=middle;resizable=0;points=[];autosize=1;strokeColor=none;fillColor=none;" parent="JYAi2SwusRmGIGOV8FEn-1" vertex="1">
          <mxGeometry y="280" width="80" height="40" as="geometry" />
        </mxCell>
        <mxCell id="JYAi2SwusRmGIGOV8FEn-15" value="&lt;font style=&quot;font-size: 9px;&quot;&gt;User Credentials&amp;nbsp;not Available&lt;/font&gt;" style="html=1;verticalAlign=bottom;endArrow=open;dashed=1;endSize=8;edgeStyle=elbowEdgeStyle;elbow=vertical;curved=0;rounded=0;entryX=1;entryY=0.5;entryDx=0;entryDy=0;entryPerimeter=0;" parent="JYAi2SwusRmGIGOV8FEn-1" source="JYAi2SwusRmGIGOV8FEn-4" target="JYAi2SwusRmGIGOV8FEn-14" edge="1">
          <mxGeometry x="0.0341" relative="1" as="geometry">
            <mxPoint x="730" y="299.5" as="sourcePoint" />
            <mxPoint x="360" y="300" as="targetPoint" />
            <Array as="points" />
            <mxPoint as="offset" />
          </mxGeometry>
        </mxCell>
        <mxCell id="JYAi2SwusRmGIGOV8FEn-16" value="&lt;font style=&quot;font-size: 9px;&quot;&gt;User Credentials&amp;nbsp; Available&lt;/font&gt;" style="html=1;verticalAlign=bottom;endArrow=open;dashed=1;endSize=8;edgeStyle=elbowEdgeStyle;elbow=horizontal;curved=0;rounded=0;" parent="JYAi2SwusRmGIGOV8FEn-1" source="JYAi2SwusRmGIGOV8FEn-4" target="JYAi2SwusRmGIGOV8FEn-5" edge="1">
          <mxGeometry x="-0.4489" relative="1" as="geometry">
            <mxPoint x="730" y="240" as="sourcePoint" />
            <mxPoint x="280" y="238" as="targetPoint" />
            <Array as="points">
              <mxPoint x="460" y="240" />
            </Array>
            <mxPoint as="offset" />
          </mxGeometry>
        </mxCell>
        <mxCell id="QSMZPL3jmYiswACcbOin-0" value="&lt;font style=&quot;font-size: 9px;&quot;&gt;Making the Food Ready &amp;amp;&lt;br&gt;Requesting to change in&amp;nbsp;&lt;br&gt;Status of Order&lt;/font&gt;" style="html=1;verticalAlign=bottom;endArrow=block;edgeStyle=elbowEdgeStyle;elbow=vertical;curved=0;rounded=0;" parent="JYAi2SwusRmGIGOV8FEn-1" edge="1">
          <mxGeometry x="0.4891" width="80" relative="1" as="geometry">
            <mxPoint x="80" y="520" as="sourcePoint" />
            <mxPoint x="469.5" y="520" as="targetPoint" />
            <mxPoint as="offset" />
          </mxGeometry>
        </mxCell>
        <mxCell id="QSMZPL3jmYiswACcbOin-1" value="&lt;font style=&quot;font-size: 9px;&quot;&gt;Changing the Status of Order&lt;/font&gt;" style="html=1;verticalAlign=bottom;endArrow=block;edgeStyle=elbowEdgeStyle;elbow=vertical;curved=0;rounded=0;" parent="JYAi2SwusRmGIGOV8FEn-1" edge="1">
          <mxGeometry x="0.0451" width="80" relative="1" as="geometry">
            <mxPoint x="470" y="550" as="sourcePoint" />
            <mxPoint x="680.5" y="550" as="targetPoint" />
            <mxPoint as="offset" />
          </mxGeometry>
        </mxCell>
        <mxCell id="QSMZPL3jmYiswACcbOin-2" value="&lt;font style=&quot;font-size: 9px;&quot;&gt;Status of Order has been Changed&lt;/font&gt;" style="html=1;verticalAlign=bottom;endArrow=open;dashed=1;endSize=8;edgeStyle=elbowEdgeStyle;elbow=vertical;curved=0;rounded=0;" parent="JYAi2SwusRmGIGOV8FEn-1" edge="1">
          <mxGeometry x="0.6653" relative="1" as="geometry">
            <mxPoint x="680" y="590" as="sourcePoint" />
            <mxPoint x="79.5" y="590" as="targetPoint" />
            <mxPoint as="offset" />
          </mxGeometry>
        </mxCell>
        <mxCell id="QSMZPL3jmYiswACcbOin-3" value="frame" style="shape=umlFrame;whiteSpace=wrap;html=1;pointerEvents=0;" parent="JYAi2SwusRmGIGOV8FEn-1" vertex="1">
          <mxGeometry x="10" y="360" width="770" height="470" as="geometry" />
        </mxCell>
        <mxCell id="QSMZPL3jmYiswACcbOin-4" value="" style="endArrow=none;dashed=1;html=1;dashPattern=1 3;strokeWidth=2;rounded=0;exitX=0.001;exitY=0.573;exitDx=0;exitDy=0;exitPerimeter=0;" parent="JYAi2SwusRmGIGOV8FEn-1" edge="1">
          <mxGeometry width="50" height="50" relative="1" as="geometry">
            <mxPoint x="10.769999999999982" y="652.01" as="sourcePoint" />
            <mxPoint x="780" y="650" as="targetPoint" />
          </mxGeometry>
        </mxCell>
        <mxCell id="QSMZPL3jmYiswACcbOin-5" value="&lt;font style=&quot;font-size: 9px;&quot;&gt;Delivered the food &amp;amp;&lt;br&gt;Requesting to change in&amp;nbsp;&lt;br&gt;Status of Order&lt;/font&gt;" style="html=1;verticalAlign=bottom;endArrow=block;edgeStyle=elbowEdgeStyle;elbow=vertical;curved=0;rounded=0;" parent="JYAi2SwusRmGIGOV8FEn-1" edge="1">
          <mxGeometry x="0.4891" width="80" relative="1" as="geometry">
            <mxPoint x="80" y="720" as="sourcePoint" />
            <mxPoint x="469.5" y="720" as="targetPoint" />
            <mxPoint as="offset" />
          </mxGeometry>
        </mxCell>
        <mxCell id="QSMZPL3jmYiswACcbOin-6" value="&lt;font style=&quot;font-size: 9px;&quot;&gt;Changing the Status of Order&lt;/font&gt;" style="html=1;verticalAlign=bottom;endArrow=block;edgeStyle=elbowEdgeStyle;elbow=vertical;curved=0;rounded=0;" parent="JYAi2SwusRmGIGOV8FEn-1" edge="1">
          <mxGeometry x="0.0451" width="80" relative="1" as="geometry">
            <mxPoint x="470" y="750" as="sourcePoint" />
            <mxPoint x="680.5" y="750" as="targetPoint" />
            <mxPoint as="offset" />
          </mxGeometry>
        </mxCell>
        <mxCell id="QSMZPL3jmYiswACcbOin-7" value="&lt;font style=&quot;font-size: 9px;&quot;&gt;Status of Order has been Changed&lt;/font&gt;" style="html=1;verticalAlign=bottom;endArrow=open;dashed=1;endSize=8;edgeStyle=elbowEdgeStyle;elbow=vertical;curved=0;rounded=0;" parent="JYAi2SwusRmGIGOV8FEn-1" edge="1">
          <mxGeometry x="0.6653" relative="1" as="geometry">
            <mxPoint x="680" y="790" as="sourcePoint" />
            <mxPoint x="79.5" y="790" as="targetPoint" />
            <mxPoint as="offset" />
          </mxGeometry>
        </mxCell>
        <mxCell id="QSMZPL3jmYiswACcbOin-8" value="[if&amp;nbsp;&lt;br&gt;Cafeteria&lt;br&gt;Staff]" style="text;html=1;align=center;verticalAlign=middle;resizable=0;points=[];autosize=1;strokeColor=none;fillColor=none;" parent="JYAi2SwusRmGIGOV8FEn-1" vertex="1">
          <mxGeometry x="5" y="530" width="70" height="60" as="geometry" />
        </mxCell>
        <mxCell id="QSMZPL3jmYiswACcbOin-9" value="[if&amp;nbsp;&lt;br&gt;Delivery&lt;br&gt;Staff]" style="text;html=1;align=center;verticalAlign=middle;resizable=0;points=[];autosize=1;strokeColor=none;fillColor=none;" parent="JYAi2SwusRmGIGOV8FEn-1" vertex="1">
          <mxGeometry x="5" y="710" width="70" height="60" as="geometry" />
        </mxCell>
        <mxCell id="yV2S3CkN2JJF168ZWLsl-3" value="&lt;font style=&quot;font-size: 9px;&quot;&gt;Requesting&amp;nbsp; for the Orders to View&lt;/font&gt;" style="html=1;verticalAlign=bottom;endArrow=block;edgeStyle=elbowEdgeStyle;elbow=vertical;curved=0;rounded=0;exitX=0.5;exitY=0.395;exitDx=0;exitDy=0;exitPerimeter=0;" parent="JYAi2SwusRmGIGOV8FEn-1" edge="1">
          <mxGeometry x="0.4889" width="80" relative="1" as="geometry">
            <mxPoint x="80" y="400.00000000000006" as="sourcePoint" />
            <mxPoint x="469.5" y="400.05" as="targetPoint" />
            <mxPoint as="offset" />
          </mxGeometry>
        </mxCell>
        <mxCell id="sWo1yGsVr5EzHiPCTKCx-0" value="&lt;font style=&quot;font-size: 9px;&quot;&gt;Requesting for Order Data&lt;/font&gt;" style="html=1;verticalAlign=bottom;endArrow=block;edgeStyle=elbowEdgeStyle;elbow=vertical;curved=0;rounded=0;" parent="JYAi2SwusRmGIGOV8FEn-1" edge="1">
          <mxGeometry width="80" relative="1" as="geometry">
            <mxPoint x="470" y="420" as="sourcePoint" />
            <mxPoint x="680.5" y="420" as="targetPoint" />
          </mxGeometry>
        </mxCell>
        <mxCell id="Y3f6OYOLEutlBLaDuE6Y-0" value="&lt;font style=&quot;font-size: 9px;&quot;&gt;Displaying Orders&lt;/font&gt;" style="html=1;verticalAlign=bottom;endArrow=open;dashed=1;endSize=8;edgeStyle=elbowEdgeStyle;elbow=vertical;curved=0;rounded=0;" parent="JYAi2SwusRmGIGOV8FEn-1" target="JYAi2SwusRmGIGOV8FEn-2" edge="1">
          <mxGeometry x="0.6986" relative="1" as="geometry">
            <mxPoint x="680" y="450" as="sourcePoint" />
            <mxPoint x="600" y="450" as="targetPoint" />
            <mxPoint as="offset" />
          </mxGeometry>
        </mxCell>
        <mxCell id="6E7UQbyNTA_oAe2Zq3xk-0" value="" style="html=1;points=[];perimeter=orthogonalPerimeter;outlineConnect=0;targetShapes=umlLifeline;portConstraint=eastwest;newEdgeStyle={&quot;edgeStyle&quot;:&quot;elbowEdgeStyle&quot;,&quot;elbow&quot;:&quot;vertical&quot;,&quot;curved&quot;:0,&quot;rounded&quot;:0};" parent="JYAi2SwusRmGIGOV8FEn-1" vertex="1">
          <mxGeometry x="75" y="130" width="10" height="720" as="geometry" />
        </mxCell>
        <mxCell id="6E7UQbyNTA_oAe2Zq3xk-1" value="" style="endArrow=classic;html=1;rounded=0;" parent="JYAi2SwusRmGIGOV8FEn-1" source="JYAi2SwusRmGIGOV8FEn-2" target="6E7UQbyNTA_oAe2Zq3xk-0" edge="1">
          <mxGeometry width="50" height="50" relative="1" as="geometry">
            <mxPoint x="80" y="170" as="sourcePoint" />
            <mxPoint x="280" y="170" as="targetPoint" />
            <Array as="points" />
          </mxGeometry>
        </mxCell>
        <mxCell id="6E7UQbyNTA_oAe2Zq3xk-2" value="" style="html=1;points=[];perimeter=orthogonalPerimeter;outlineConnect=0;targetShapes=umlLifeline;portConstraint=eastwest;newEdgeStyle={&quot;edgeStyle&quot;:&quot;elbowEdgeStyle&quot;,&quot;elbow&quot;:&quot;vertical&quot;,&quot;curved&quot;:0,&quot;rounded&quot;:0};" parent="JYAi2SwusRmGIGOV8FEn-1" vertex="1">
          <mxGeometry x="275" y="130" width="10" height="720" as="geometry" />
        </mxCell>
        <mxCell id="6E7UQbyNTA_oAe2Zq3xk-3" value="" style="html=1;points=[];perimeter=orthogonalPerimeter;outlineConnect=0;targetShapes=umlLifeline;portConstraint=eastwest;newEdgeStyle={&quot;edgeStyle&quot;:&quot;elbowEdgeStyle&quot;,&quot;elbow&quot;:&quot;vertical&quot;,&quot;curved&quot;:0,&quot;rounded&quot;:0};" parent="JYAi2SwusRmGIGOV8FEn-1" vertex="1">
          <mxGeometry x="465" y="130" width="10" height="720" as="geometry" />
        </mxCell>
        <mxCell id="6E7UQbyNTA_oAe2Zq3xk-4" value="" style="html=1;points=[];perimeter=orthogonalPerimeter;outlineConnect=0;targetShapes=umlLifeline;portConstraint=eastwest;newEdgeStyle={&quot;edgeStyle&quot;:&quot;elbowEdgeStyle&quot;,&quot;elbow&quot;:&quot;vertical&quot;,&quot;curved&quot;:0,&quot;rounded&quot;:0};" parent="JYAi2SwusRmGIGOV8FEn-1" vertex="1">
          <mxGeometry x="675" y="130" width="10" height="720" as="geometry" />
        </mxCell>
      </root>
    </mxGraphModel>
  </diagram>
</mxfile>
